<?xml version="1.0" encoding="utf-8"?>
<!-- Generator: Adobe Illustrator 24.1.2, SVG Export Plug-In . SVG Version: 6.00 Build 0)  -->
<svg version="1.1" id="Layer_1" xmlns="http://www.w3.org/2000/svg" xmlns:xlink="http://www.w3.org/1999/xlink" x="0px" y="0px"
	 viewBox="0 0 800 800" style="enable-background:new 0 0 800 800;" xml:space="preserve">
<style type="text/css">
	.st0{fill:none;stroke:#000000;stroke-width:66;stroke-linecap:round;stroke-miterlimit:133.3333;}
</style>
<g id="big_winner">
	<path class="st0" d="M107.6,687.7c39.1,39.1,101.9,39.1,227.6,39.1h133.3c125.7,0,188.6,0,227.6-39.1
		c39.1-39,39.1-101.9,39.1-227.6c0-39,0-71.9-1.2-100 M696.2,232.4c-39-39.1-101.9-39.1-227.6-39.1H335.2
		c-125.7,0-188.6,0-227.6,39.1C68.5,271.5,68.5,334.3,68.5,460c0,39,0,71.9,1.2,100"/>
	<path class="st0" d="M401.9,60.1c62.9,0,94.3,0,113.8,19.5s19.5,51,19.5,113.8 M288.1,79.6c-19.5,19.5-19.5,51-19.5,113.8"/>
	<path class="st0" d="M401.9,571.2c36.8,0,66.7-24.9,66.7-55.6c0-30.7-29.8-55.6-66.7-55.6s-66.7-24.9-66.7-55.6
		s29.8-55.6,66.7-55.6 M401.9,571.2c-36.8,0-66.7-24.9-66.7-55.6 M401.9,571.2v22.2 M401.9,326.7v22.2 M401.9,348.9
		c36.8,0,66.7,24.9,66.7,55.6"/>
</g>
</svg>
