<?xml version="1.0" encoding="utf-8"?>
<!-- Generator: Adobe Illustrator 24.1.2, SVG Export Plug-In . SVG Version: 6.00 Build 0)  -->
<svg version="1.1" id="Layer_1" xmlns="http://www.w3.org/2000/svg" xmlns:xlink="http://www.w3.org/1999/xlink" x="0px" y="0px"
	 viewBox="0 0 800 800" style="enable-background:new 0 0 800 800;" xml:space="preserve">
<style type="text/css">
	.st0{fill:none;stroke:#000000;stroke-width:66;stroke-linecap:round;stroke-linejoin:round;stroke-miterlimit:133.3333;}
</style>
<g id="bought">
	<path class="st0" d="M701,177.8l-66.7,233.3H246.9 M667.7,544.5h-400L201,111.2H101 M384.4,244.5l66.7,66.7 M451,311.2l66.7-66.7
		 M451,311.2v-200 M301,677.8c0,18.4-14.9,33.3-33.3,33.3s-33.3-14.9-33.3-33.3s14.9-33.3,33.3-33.3S301,659.4,301,677.8z
		 M667.7,677.8c0,18.4-14.9,33.3-33.3,33.3c-18.4,0-33.3-14.9-33.3-33.3s14.9-33.3,33.3-33.3S667.7,659.4,667.7,677.8z"/>
	<line class="st0" x1="517.7" y1="140.8" x2="451" y2="74.2"/>
	<line class="st0" x1="451" y1="74.2" x2="384.4" y2="140.8"/>
</g>
</svg>
