<?xml version="1.0" encoding="utf-8"?>
<!-- Generator: Adobe Illustrator 24.1.2, SVG Export Plug-In . SVG Version: 6.00 Build 0)  -->
<svg version="1.1" xmlns="http://www.w3.org/2000/svg" xmlns:xlink="http://www.w3.org/1999/xlink" x="0px" y="0px"
	 viewBox="0 0 800 800" style="enable-background:new 0 0 800 800;" xml:space="preserve">
<style type="text/css">
	.st0{display:none;}
	
		.st1{display:inline;fill:none;stroke:#000000;stroke-width:66;stroke-linecap:round;stroke-linejoin:round;stroke-miterlimit:133.3333;}
	
		.st2{display:inline;fill:none;stroke:#000000;stroke-width:33;stroke-linecap:round;stroke-linejoin:round;stroke-miterlimit:133.3333;}
	.st3{display:inline;fill:none;stroke:#000000;stroke-width:66;stroke-miterlimit:133.3333;}
	.st4{display:inline;fill:none;stroke:#000000;stroke-width:66;stroke-linecap:round;stroke-miterlimit:133.3333;}
	.st5{display:inline;fill:none;stroke:#000000;stroke-width:66;stroke-linecap:round;stroke-miterlimit:10;}
	.st6{display:inline;}
	.st7{fill:#020202;}
	.st8{fill:none;stroke:#000000;stroke-width:66;stroke-linecap:round;stroke-linejoin:round;stroke-miterlimit:133.3333;}
	.st9{fill:none;stroke:#000000;stroke-width:66;stroke-linecap:round;stroke-miterlimit:133.3333;}
	.st10{display:inline;fill:none;stroke:#000000;stroke-width:66;stroke-linecap:round;stroke-linejoin:round;stroke-miterlimit:10;}
	.st11{display:inline;fill:none;stroke:#000000;stroke-width:66;stroke-miterlimit:10;}
	
		.st12{display:inline;fill:none;stroke:#000000;stroke-width:66.6667;stroke-linecap:round;stroke-linejoin:round;stroke-miterlimit:66.6667;}
	.st13{display:inline;fill:none;stroke:#000000;stroke-width:33;stroke-linecap:round;stroke-miterlimit:133.3333;}
	.st14{fill:none;stroke:#000000;stroke-width:66;stroke-linecap:round;stroke-linejoin:round;stroke-miterlimit:10;}
	.st15{fill-opacity:0;stroke:#000000;stroke-width:66;stroke-linecap:round;stroke-linejoin:round;stroke-miterlimit:25;}
	.st16{fill:none;stroke:#000000;stroke-width:66;stroke-linecap:round;stroke-linejoin:round;stroke-miterlimit:25;}
	.st17{display:inline;fill:none;}
	.st18{font-family:'SpaceMono-BoldItalic';}
	.st19{font-size:313px;}
	.st20{fill:none;stroke:#000000;stroke-width:66;stroke-linecap:round;stroke-miterlimit:10;}
</style>
<g id="calendar" class="st0">
	<path class="st1" d="M580,699H202.4c-37.3,0-56,0-70.3-7.3c-12.5-6.4-22.7-16.6-29.1-29.1c-7.3-14.3-7.3-32.9-7.3-70.3v-320
		c0-37.3,0-56,7.3-70.3c6.4-12.5,16.6-22.7,29.1-29.1c14.3-7.3,32.9-7.3,70.3-7.3h386.7c37.3,0,56,0,70.3,7.3
		c12.5,6.4,22.7,16.6,29.1,29.1c7.3,14.3,7.3,32.9,7.3,70.3v306 M229,99v66.7 M562.4,99v66.7 M95.7,299h600"/>
</g>
<g id="month" class="st0">
	<rect x="202.9" y="398.8" class="st2" width="379.3" height="192.3"/>
</g>
<g id="week" class="st0">
	<rect x="202.9" y="398.8" class="st2" width="379.3" height="104.3"/>
</g>
<g id="day" class="st0">
	<rect x="202.9" y="398.8" class="st2" width="118.3" height="104.3"/>
</g>
<g id="screenshot" class="st0">
	<circle class="st3" cx="400" cy="433.3" r="100"/>
	<path class="st4" d="M66.7,445.5c0-102.1,0-153.2,25-189.9c10.8-15.9,24.7-29.5,40.9-40.1c24-15.8,54.1-21.4,100.1-23.4
		c22,0,40.9-16.3,45.2-37.5c6.5-31.7,34.8-54.5,67.8-54.5h108.9c32.9,0,61.3,22.8,67.8,54.5c4.3,21.1,23.2,37.5,45.2,37.5
		c46,2,76.1,7.6,100.1,23.4c16.2,10.6,30.1,24.2,40.9,40.1c25,36.7,25,87.8,25,189.9c0,102.1,0,153.2-25,189.9
		c-10.8,15.9-24.7,29.5-40.9,40.1C630.1,700,578.1,700,474.1,700H325.9c-104,0-156.1,0-193.4-24.5c-16.2-10.6-30.1-24.3-40.9-40.1
		C84.6,625,79.5,613.5,75.9,600"/>
	<path class="st4" d="M633.3,333.3H600"/>
</g>
<g id="settings" class="st0">
	<circle class="st3" cx="396.3" cy="399.3" r="100"/>
	<path class="st4" d="M118.3,353.9c15.8,9.9,25.9,26.8,25.9,45.4c0,18.6-10.1,35.5-25.9,45.4c-10.7,6.7-17.6,12.1-22.5,18.5
		c-10.8,14-15.5,31.8-13.2,49.3c1.7,13.1,9.5,26.6,25,53.5c15.5,26.9,23.3,40.3,33.8,48.4c14,10.8,31.8,15.5,49.3,13.2
		c8-1.1,16.1-4.3,27.3-10.3c16.4-8.7,36.1-9,52.2,0.3c16.1,9.3,25.6,26.5,26.3,45.1c0.5,12.6,1.7,21.3,4.8,28.8
		c6.8,16.3,19.7,29.3,36.1,36.1c12.3,5.1,27.8,5.1,58.8,5.1s46.6,0,58.8-5.1c16.3-6.8,29.3-19.7,36.1-36.1
		c3.1-7.5,4.3-16.1,4.8-28.8c0.7-18.6,10.2-35.8,26.3-45.1c16.1-9.3,35.8-9,52.2-0.3c11.2,5.9,19.3,9.2,27.3,10.3
		c17.5,2.3,35.3-2.4,49.3-13.2c10.5-8.1,18.3-21.5,33.8-48.4c6.9-12,12.3-21.3,16.3-29.1 M674.2,444.6
		c-15.8-9.9-25.9-26.8-25.9-45.4c0-18.6,10.1-35.5,25.9-45.4c10.7-6.7,17.6-12.1,22.5-18.5c10.8-14,15.5-31.8,13.2-49.3
		c-1.7-13.1-9.5-26.6-25-53.5c-15.5-26.9-23.3-40.4-33.8-48.4c-14-10.8-31.8-15.5-49.3-13.2c-8,1.1-16.1,4.3-27.3,10.3
		c-16.5,8.7-36.1,9-52.2-0.3c-16.1-9.3-25.6-26.5-26.3-45.1c-0.5-12.7-1.7-21.3-4.8-28.8c-6.8-16.3-19.7-29.3-36.1-36.1
		c-12.3-5.1-27.8-5.1-58.8-5.1s-46.6,0-58.8,5.1c-16.3,6.8-29.3,19.7-36.1,36.1c-3.1,7.5-4.3,16.1-4.8,28.8
		c-0.7,18.6-10.2,35.8-26.3,45.1c-16.1,9.3-35.8,9-52.2,0.3c-11.2-5.9-19.3-9.2-27.3-10.3c-17.5-2.3-35.3,2.4-49.3,13.2
		c-10.5,8.1-18.3,21.5-33.8,48.4c-6.9,12-12.3,21.3-16.3,29.1"/>
</g>
<g id="delete" class="st0">
	<line class="st5" x1="124.4" y1="215.5" x2="689.4" y2="215.5"/>
	<line class="st5" x1="515.9" y1="395" x2="515.9" y2="564.8"/>
	<line class="st5" x1="297.9" y1="395" x2="297.9" y2="564.8"/>
	<path class="st5" d="M297.9,134c0,0,23.9-62.5,114.5-62.5S515.9,134,515.9,134"/>
	<path class="st5" d="M655.3,313.1v345c0,30.3-24.8,55-55,55H213.6c-30.3,0-55-24.8-55-55v-345"/>
	<line class="st5" x1="406.9" y1="393.6" x2="406.9" y2="563.4"/>
</g>
<g id="rec" class="st0">
	<path class="st3" d="M229.1,249c0-92,74.6-166.7,166.7-166.7c92,0,166.7,74.6,166.7,166.7v100c0,92-74.6,166.7-166.7,166.7
		c-92,0-166.7-74.6-166.7-166.7V249z"/>
	<path class="st4" d="M429.1,249h133.3"/>
	<path class="st4" d="M429.1,349h133.3"/>
	<path class="st4" d="M395.8,615.7v100"/>
	<path class="st4" d="M126.4,393.3c0,0,20.7,104.5,89.5,158.6c72.8,57.2,179.9,63.8,179.9,63.8"/>
	<path class="st4" d="M665.2,375.6c0,0,5.7,72-62.3,149.7c-54.7,62.5-114.1,78.5-114.1,78.5"/>
</g>
<g id="share" class="st0">
	<path class="st4" d="M132,417.6c0,46,37.3,83.3,83.3,83.3s83.3-37.3,83.3-83.3s-37.3-83.3-83.3-83.3"/>
	<path class="st4" d="M465.4,234.3L298.7,350.9"/>
	<path class="st4" d="M465.4,600.9L298.7,484.3"/>
	<path class="st4" d="M548.7,717.6c46,0,83.3-37.3,83.3-83.3S594.7,551,548.7,551s-83.3,37.3-83.3,83.3"/>
	<path class="st4" d="M620.9,242.6c-23,39.9-74,53.5-113.8,30.5c-39.9-23-53.5-74-30.5-113.8c23-39.9,74-53.5,113.8-30.5"/>
</g>
<g id="pro" class="st0">
	<path class="st1" d="M663.7,399.8c0,148.7-182,256.5-245.3,289.4c-6.8,3.6-10.3,5.3-15,6.3c-3.7,0.7-9,0.7-12.7,0
		c-4.7-0.9-8.2-2.7-15-6.3c-63.3-33-245.3-140.7-245.3-289.4V273.7c0-26.7,0-40,4.4-51.4c3.9-10.1,10.1-19.1,18.2-26.3
		c9.2-8.1,21.7-12.8,46.6-22.1l178.7-67c6.9-2.6,10.4-3.9,14-4.4c3.2-0.5,6.4-0.5,9.5,0c3.6,0.5,7,1.8,14,4.4l178.7,67
		c25,9.4,37.4,14,46.6,22.1c8.1,7.2,14.4,16.2,18.2,26.3c4.4,11.5,4.4,24.8,4.4,51.4V399.8z"/>
</g>
<g id="Layer_30" class="st0">
	<polyline class="st1" points="379.1,299.8 329.1,399.8 462.4,399.8 412.4,499.8 	"/>
</g>
<g id="Layer_32" class="st0">
	<polygon class="st1" points="397,322.2 432,393 510.1,404.4 453.6,459.5 466.9,537.4 397,500.6 327.1,537.4 340.4,459.5 
		283.8,404.4 362,393 	"/>
</g>
<g id="Layer_31" class="st0">
	<path class="st1" d="M518.7,230.4v49 M518.7,328.4v-49 M518.7,279.4h-49 M518.7,279.4h49"/>
</g>
<g id="target" class="st0">
	<path class="st1" d="M62.4,399h100"/>
	<path class="st1" d="M629.1,399h100"/>
	<path class="st1" d="M395.8,732.3v-100"/>
	<path class="st1" d="M395.8,165.7v-100"/>
	<path class="st1" d="M329.1,399h66.7h66.7"/>
	<path class="st1" d="M395.8,465.7V399v-66.7"/>
	<path class="st1" d="M229.1,110.3c49-28.4,106-44.6,166.7-44.6c184.1,0,333.3,149.2,333.3,333.3c0,184.1-149.2,333.3-333.3,333.3
		C211.7,732.3,62.4,583.1,62.4,399c0-60.7,16.2-117.6,44.6-166.7"/>
</g>
<g id="warning" class="st0">
	<path class="st4" d="M206.1,299c76.2-133.3,122-200,189.7-200c77,0,125.7,86.2,222.9,258.7l12.1,21.5
		c80.8,143.3,121.3,215,84.7,267.4C679,699,588.7,699,407.9,699h-24.2c-180.8,0-271.1,0-307.7-52.4c-31.7-45.5-5.4-105.5,54.9-214.3
		"/>
	<path class="st4" d="M395.8,265.7v166.7"/>
	<line class="st4" x1="395.5" y1="563.6" x2="396" y2="563.6"/>
</g>
<g id="robot" class="st0">
	<path class="st1" d="M634.3,410.7h33.3c36.8,0,66.7,29.8,66.7,66.7v33.3c0,36.8-29.8,66.7-66.7,66.7l-33.3,2 M167.6,462.7v66.7
		 M167.6,410.7h-33.3c-36.8,0-66.7,29.8-66.7,66.7v33.3c0,36.8,29.8,66.7,66.7,66.7h33.3 M401,277.4H301
		c-73.6,0-133.3,59.7-133.3,133.3v2l-0.1,0v164.7v-0.1V721h100h266.7h100V577.3v2.1V410.7v0l0,0c0-73.6-59.7-133.3-133.3-133.3H401
		 M301,412.7L301,412.7 M501,412.7L501,412.7"/>
	<g class="st6">
		<path d="M401,101.7c18.4,0,33.3,14.9,33.3,33.3s-14.9,33.3-33.3,33.3s-33.3-14.9-33.3-33.3S382.6,101.7,401,101.7 M401,35.7
			c-54.8,0-99.3,44.5-99.3,99.3s44.5,99.3,99.3,99.3s99.3-44.5,99.3-99.3S455.7,35.7,401,35.7L401,35.7z"/>
	</g>
	<rect x="268.5" y="517.3" class="st1" width="261" height="102.5"/>
</g>
<g id="dark" class="st0">
	<path class="st1" d="M387.3,186.3c54.2-53.9,129-87.3,211.5-87.3c32.8,0,64.3,5.2,93.8,14.9C596.5,172.4,532.2,278.2,532.2,399
		c0,120.8,64.3,226.6,160.4,285.1c-29.5,9.7-61,14.9-93.8,14.9c-61.7,0-119-18.6-166.7-50.5"/>
	<g class="st6">
		<path class="st7" d="M320.3,320.2c6.2,0,12.3,3.4,15,10.2l14.3,36.5c1.6,4.2,4.9,7.5,9.1,9.1l36.4,14.4c13.6,5.4,13.6,24.7,0,30.1
			l-36.4,14.4c-4.2,1.6-7.4,4.9-9.1,9.1l-14.3,36.5c-2.7,6.8-8.8,10.2-15,10.2s-12.3-3.4-15-10.2L291,444c-1.6-4.2-4.9-7.5-9.1-9.1
			l-36.4-14.4c-13.6-5.4-13.6-24.7,0-30.1l36.4-14.4c4.2-1.6,7.4-4.9,9.1-9.1l14.3-36.5C308,323.6,314.2,320.2,320.3,320.2
			 M320.3,254.2c-34,0-64,20.5-76.4,52.1l-6.4,16.4l-16.2,6.4c-31.5,12.5-51.9,42.5-51.9,76.4s20.4,63.9,51.9,76.4l16.2,6.4
			l6.4,16.4c12.4,31.7,42.4,52.1,76.4,52.1c34,0,64-20.5,76.4-52.1l6.4-16.4l16.2-6.4c31.5-12.5,51.9-42.5,51.9-76.4
			s-20.4-63.9-51.9-76.4l-16.2-6.4l-6.4-16.4C384.3,274.6,354.3,254.2,320.3,254.2L320.3,254.2z"/>
	</g>
	<g class="st6">
		<path d="M183.7,569c6.2,0,12.3,3.4,15,10.2l5.2,13.3c1.6,4.2,4.9,7.5,9.1,9.1l13.3,5.3c13.6,5.4,13.6,24.7,0,30.1l-13.3,5.3
			c-4.2,1.6-7.4,4.9-9.1,9.1l-5.2,13.3c-2.7,6.8-8.8,10.2-15,10.2c-6.2,0-12.3-3.4-15-10.2l-5.2-13.3c-1.6-4.2-4.9-7.5-9.1-9.1
			l-13.3-5.3c-13.6-5.4-13.6-24.7,0-30.1l13.3-5.3c4.2-1.6,7.4-4.9,9.1-9.1l5.2-13.3C171.4,572.4,177.5,569,183.7,569 M183.7,503
			c-31.6,0-59.7,17.6-73.5,45.5c-27.7,13.9-45.3,42-45.3,73.4c0,31.5,17.5,59.6,45.3,73.4c13.8,27.9,41.9,45.5,73.5,45.5
			c31.6,0,59.7-17.6,73.5-45.5c27.7-13.9,45.3-42,45.3-73.4c0-31.5-17.5-59.6-45.3-73.4C243.3,520.6,215.2,503,183.7,503L183.7,503z
			"/>
	</g>
</g>
<g id="light" class="st0">
	<path class="st5" d="M238.6,343.5c-6.1,17.4-9.5,36.1-9.5,55.6c0,92,74.6,166.7,166.7,166.7c92,0,166.7-74.6,166.7-166.7
		c0-92-74.6-166.7-166.7-166.7c-19.5,0-38.2,3.3-55.6,9.5"/>
	<path class="st5" d="M395.8,65.7v66.7"/>
	<path class="st5" d="M395.8,665.7v66.7"/>
	<path class="st5" d="M129.1,399H62.4"/>
	<path class="st5" d="M729.1,399h-66.7"/>
	<path class="st5" d="M655,139.8L581,207.5"/>
	<path class="st5" d="M136.5,139.8l74.1,67.7"/>
	<path class="st5" d="M210.6,584.2l-74.1,74.1"/>
	<path class="st5" d="M655,658.3L581,584.2"/>
</g>
<g id="time" class="st0">
	<path class="st1" d="M395.8,265.7V399l83.3,83.3"/>
	<path class="st1" d="M690.2,238c28.4,49,44.6,106,44.6,166.7c0,184.1-149.2,333.3-333.3,333.3C217.3,738,68.1,588.8,68.1,404.7
		c0-184.1,149.2-333.3,333.3-333.3c60.7,0,117.6,16.2,166.7,44.6"/>
</g>
<g id="circle" class="st0">
	<path class="st1" d="M690.2,238c28.4,49,44.6,106,44.6,166.7c0,184.1-149.2,333.3-333.3,333.3C217.3,738,68.1,588.8,68.1,404.7
		c0-184.1,149.2-333.3,333.3-333.3c60.7,0,117.6,16.2,166.7,44.6"/>
</g>
<g id="BG1" class="st0">
	<path class="st4" d="M729.1,399c0,157.1,0,235.7-48.8,284.5c-48.8,48.8-127.4,48.8-284.5,48.8c-157.1,0-235.7,0-284.5-48.8
		C62.4,634.7,62.4,556.1,62.4,399c0-157.1,0-235.7,48.8-284.5c48.8-48.8,127.4-48.8,284.5-48.8c157.1,0,235.7,0,284.5,48.8
		c32.5,32.5,43.3,78.1,47,151.2"/>
</g>
<g id="BG1_variant" class="st0">
	<path class="st4" d="M721.9,589.3c-6.4,41.5-18.6,71.2-41.6,94.2c-48.8,48.8-127.4,48.8-284.5,48.8c-157.1,0-235.7,0-284.5-48.8
		C62.4,634.7,62.4,556.1,62.4,399c0-157.1,0-235.7,48.8-284.5c48.8-48.8,127.4-48.8,284.5-48.8c157.1,0,235.7,0,284.5,48.8
		c18.3,18.3,29.7,40.7,36.8,69.8"/>
</g>
<g id="plan" class="st0">
	<path class="st1" d="M210,508.5l18.1,40l115.2-100"/>
	<path class="st1" d="M210,285.2l38.1,40l95.2-100"/>
	<path class="st4" d="M443.3,291.9H590"/>
	<path class="st4" d="M443.3,515.2H590"/>
</g>
<g id="plan_copy">
	<path class="st8" d="M144.7,551.5l24.7,54.6l157.3-136.5"/>
	<path class="st8" d="M144.7,246.7l52,54.6l130-136.5"/>
	<path class="st9" d="M463.2,255.8h200.2"/>
	<path class="st9" d="M463.2,560.6h200.2"/>
</g>
<g id="planFollowed" class="st0">
	<path class="st1" d="M210,415.5l18.1,40l115.2-100"/>
	<path class="st4" d="M443.3,422.2H590"/>
</g>
<g id="settings_1_" class="st0">
	<path class="st4" d="M215.8,234.3h360"/>
	<path class="st4" d="M215.8,399h360"/>
	<path class="st4" d="M215.8,563.7h360"/>
</g>
<g id="log" class="st0">
	<path class="st1" d="M399.1,287.3v112.6 M399.1,512.5V399.9 M399.1,399.9H286.4 M399.1,399.9h112.6"/>
</g>
<g id="close" class="st0">
	<path class="st10" d="M482.1,316.7L315.4,483.3 M315.4,316.7l166.7,166.7"/>
</g>
<g id="check" class="st0">
	<path class="st10" d="M279.1,415.7l66.7,66.7l166.7-166.7"/>
</g>
<g id="BG2" class="st0">
	<path class="st4" d="M729.1,399c0,157.1,0,235.7-48.8,284.5c-48.8,48.8-127.4,48.8-284.5,48.8c-157.1,0-235.7,0-284.5-48.8
		C62.4,634.7,62.4,556.1,62.4,399c0-157.1,0-235.7,48.8-284.5c48.8-48.8,127.4-48.8,284.5-48.8c20,0,38.8,0,56.4,0.1"/>
</g>
<g id="edit" class="st0">
	<path class="st11" d="M715.5,201.3l-318,318c-31.7,31.7-125.7,46.3-146.7,25.3s-6.7-115,25-146.7L594.2,79.7
		c7.9-8.6,17.4-15.4,27.9-20.2c10.6-4.8,22-7.4,33.6-7.6c11.6-0.2,23.2,1.9,33.9,6.2c10.8,4.3,20.6,10.8,28.8,19s14.7,18,19,28.8
		s6.4,22.3,6.1,34c-0.3,11.6-2.9,23.1-7.7,33.6S724.1,193.5,715.5,201.3L715.5,201.3z"/>
</g>
<g id="quick_edit" class="st0">
	<path class="st11" d="M715.5,201.3l-318,318c-31.7,31.7-125.7,46.3-146.7,25.3s-6.7-115,25-146.7L594.2,79.7
		c7.9-8.6,17.4-15.4,27.9-20.2c10.6-4.8,22-7.4,33.6-7.6c11.6-0.2,23.2,1.9,33.9,6.2c10.8,4.3,20.6,10.8,28.8,19s14.7,18,19,28.8
		s6.4,22.3,6.1,34c-0.3,11.6-2.9,23.1-7.7,33.6S724.1,193.5,715.5,201.3L715.5,201.3z"/>
	<line class="st5" x1="226.2" y1="235.6" x2="307.3" y2="235.6"/>
	<line class="st5" x1="154.3" y1="313.2" x2="235.4" y2="313.2"/>
	<line class="st5" x1="298.1" y1="157.9" x2="379.2" y2="157.9"/>
</g>
<g id="analysis" class="st0">
	<path class="st12" d="M173.1,445.9l202.9-205l109.7,105l134.1-156.8l74.7,72.8"/>
</g>
<g id="import_1_" class="st0">
	<g class="st6">
		<path class="st8" d="M657.7,169L384.4,442.3"/>
		<path class="st8" d="M357.7,308v161h161"/>
	</g>
</g>
<g id="export" class="st0">
	<g class="st6">
		<path class="st8" d="M398.7,428L672,154.7"/>
		<path class="st8" d="M698.7,289V128h-161"/>
	</g>
</g>
<g id="dollar" class="st0">
	<path class="st4" d="M326.9,583.7c62.7,0,113.5-42.3,113.5-94.6c0-52.2-50.8-94.6-113.5-94.6s-113.5-42.3-113.5-94.6
		c0-52.2,50.8-94.6,113.5-94.6 M326.9,583.7c-62.7,0-113.5-42.3-113.5-94.6 M326.9,583.7v37.8 M326.9,167.5v37.8 M326.9,205.4
		c62.7,0,113.5,42.3,113.5,94.6"/>
</g>
<g id="dollarSmall" class="st0">
	<path class="st13" d="M512.2,591.4c32.8,0,59.3-22.1,59.3-49.4c0-27.3-26.6-49.4-59.3-49.4s-59.3-22.1-59.3-49.4
		c0-27.3,26.6-49.4,59.3-49.4 M512.2,591.4c-32.8,0-59.3-22.1-59.3-49.4 M512.2,591.4v19.8 M512.2,373.9v19.8 M512.2,393.7
		c32.8,0,59.3,22.1,59.3,49.4"/>
</g>
<g id="currentprice" class="st0">
	<circle class="st1" cx="623.1" cy="204" r="71.2"/>
	<line class="st1" x1="623.6" y1="90.2" x2="623.6" y2="124.8"/>
	<line class="st1" x1="623.6" y1="278.1" x2="623.6" y2="312.6"/>
	<line class="st1" x1="507.4" y1="203.5" x2="541.9" y2="203.5"/>
	<line class="st1" x1="695.2" y1="203.5" x2="729.7" y2="203.5"/>
</g>
<g id="entryclock" class="st0">
	<path class="st1" d="M734.8,404.7c0,184.1-149.2,333.3-333.3,333.3C217.3,738,68.1,588.8,68.1,404.7
		c0-184.1,149.2-333.3,333.3-333.3"/>
	<path class="st1" d="M395.8,265.7V399l83.3,83.3"/>
</g>
<g id="entry" class="st0">
	<g class="st6">
		<path class="st8" d="M697.5,124.8L573.4,252.1"/>
		<path class="st8" d="M546.7,117.8v161h161"/>
	</g>
</g>
<g id="entry_copy" class="st0">
	<g class="st6">
		<path class="st8" d="M697.5,124.8L573.4,252.1"/>
		<path class="st8" d="M546.7,117.8v161h161"/>
	</g>
</g>
<g id="exit" class="st0">
	<g class="st6">
		<path class="st8" d="M558.8,270.8l124.1-127.4"/>
		<path class="st8" d="M709.6,277.8v-161h-161"/>
	</g>
</g>
<g id="timeframe" class="st0">
	<circle class="st11" cx="406.7" cy="406.2" r="221.1"/>
	<line class="st10" x1="243.4" y1="583.2" x2="157.7" y2="700.8"/>
	<line class="st10" x1="653.4" y1="700.8" x2="567.7" y2="583.2"/>
	<line class="st10" x1="373.1" y1="329.4" x2="373.1" y2="439.5"/>
	<line class="st10" x1="472.7" y1="439.7" x2="374" y2="439.7"/>
	<path class="st10" d="M113.7,197.8c0,0,1.6-32.1,31.3-59.1s64.2-29.9,64.2-29.9"/>
	<path class="st10" d="M686.2,197.8c0,0-1.6-32.1-31.3-59.1s-64.2-29.9-64.2-29.9"/>
</g>
<g id="category" class="st0">
	<circle class="st10" cx="248" cy="243.1" r="96.9"/>
	<rect x="467.2" y="152.6" class="st10" width="181" height="181"/>
	<polygon class="st10" points="243.3,439.2 141.7,618.9 344.9,618.9 	"/>
	<polygon class="st10" points="557.7,426.6 591,494 665.4,504.9 611.6,557.4 624.3,631.5 557.7,596.5 491.1,631.5 503.8,557.4 
		450,504.9 524.4,494 	"/>
</g>
<g id="strategy" class="st0">
	<path class="st10" d="M310.8,189.7L179,321.6 M179,189.7l131.9,131.9"/>
	<circle class="st10" cx="553.5" cy="542.7" r="83.1"/>
	<path class="st10" d="M152.3,508.2c0,0,154.8-20,262.1-93.8S588,227.8,588,227.8"/>
	<line class="st10" x1="592.9" y1="222.2" x2="489.3" y2="246"/>
	<line class="st10" x1="592.9" y1="223.7" x2="598.1" y2="329.7"/>
</g>
<g id="direction" class="st0">
	<g class="st6">
		<line class="st14" x1="283.5" y1="234.4" x2="283.5" y2="574.2"/>
		<line class="st14" x1="282.6" y1="235" x2="214.6" y2="302.9"/>
		<line class="st14" x1="284.6" y1="235" x2="352.6" y2="302.9"/>
	</g>
	<g class="st6">
		<line class="st14" x1="530.1" y1="574.2" x2="530.1" y2="234.4"/>
		<line class="st14" x1="531.1" y1="573.6" x2="599" y2="505.7"/>
		<line class="st14" x1="529" y1="573.6" x2="461.1" y2="505.7"/>
	</g>
</g>
<g id="amount" class="st0">
	<line class="st1" x1="170.9" y1="605.8" x2="299.9" y2="605.8"/>
	<line class="st1" x1="170.9" y1="470.4" x2="394.5" y2="470.4"/>
	<line class="st1" x1="170.9" y1="335" x2="519.7" y2="335"/>
	<line class="st1" x1="170.9" y1="199.7" x2="630.2" y2="199.7"/>
</g>
<g id="ticker" class="st0">
	<g class="st6">
		<path class="st15" d="M96.3,599.7h44.6 M96.3,483.6h44.6 M96.3,97.3v616.7h616.7 M96.2,142.8h44.6 M96.2,256.7h44.6 M96.2,369.6
			h44.6"/>
		<path class="st16" d="M291.4,541.8c0,24.8-20.1,44.9-44.9,44.9c-24.8,0-44.9-20.1-44.9-44.9c0-24.8,20.1-44.9,44.9-44.9
			C271.3,496.9,291.4,517,291.4,541.8z M400.7,323.8c0,24.8-20.1,44.9-44.9,44.9c0,0,0,0,0,0c-24.8,0-44.9-20.1-44.9-44.9
			s20.1-44.9,44.9-44.9C380.6,278.8,400.7,298.9,400.7,323.8L400.7,323.8z M582.2,475.4c0,24.8-20.1,44.9-44.9,44.9
			c-24.8,0-44.9-20.1-44.9-44.9c0-24.8,20.1-44.9,44.9-44.9C562.1,430.5,582.2,450.6,582.2,475.4z M672.3,169.6
			c0,24.8-20.1,44.9-44.9,44.9c-24.8,0-44.9-20.1-44.9-44.9c0-24.8,20.1-44.9,44.9-44.9C652.1,124.7,672.2,144.8,672.3,169.6
			L672.3,169.6z"/>
		<path class="st15" d="M272.8,498.1l58.8-130.7 M394.5,357.3l101.4,88 M552.8,428.4l63.1-212.2"/>
	</g>
</g>
<g id="BG3" class="st0">
	<path class="st1" d="M698.7,472.6V209.9c0-62.2-50.4-112.6-112.6-112.6H398.4 M698.7,472.6l-244,225.2 M698.7,472.6H529.8
		c-41.5,0-75.1,33.6-75.1,75.1v150.1 M454.7,697.9h-244c-62.2,0-112.6-50.4-112.6-112.6V397.6"/>
</g>
<g id="flag" class="st0">
	<path class="st4" d="M57.4,733.7V609.4 M57.4,609.4l122.3-24.2c81.7-16.2,166.4-8.5,243.7,22.2c83.8,33.2,176.1,39.4,263.6,17.7
		l10.6-2.6c30.9-7.7,52.6-35.2,52.6-66.8V194.5c0-38.3-36.3-66.3-73.8-57.1c-80.7,20-165.8,14.3-243-16.3l-10.1-4
		C346,86.5,261.3,78.8,179.7,95L57.4,119.2 M57.4,609.4V462.4 M57.4,119.2V58.1 M57.4,119.2v147.1"/>
</g>
<g id="_x31_00" class="st0">
	<g class="st6">
		<path d="M123.8,461.9v-39.4h62l33.8-159h-5.6l-36.6,75.1H136v-3.8l48.5-92h80.8l-38.2,179.7h54.1v39.4H123.8z"/>
		<path d="M382.9,482c-14,0-25.9-3-35.8-9.1c-9.9-6-17.5-14.3-22.7-24.7c-5.2-10.4-7.8-22-7.8-34.7c0-3.5,0.2-7,0.5-10.5
			s0.9-6.9,1.7-10.5l10.3-48.8c6.5-30.7,17.7-53.3,33.6-67.8c16-14.5,37.2-21.8,63.7-21.8c14,0,25.9,3,35.8,9.1
			c9.9,6.1,17.5,14.2,22.7,24.6c5.2,10.3,7.8,22,7.8,34.9c0,3.3-0.2,6.8-0.5,10.3c-0.3,3.6-0.9,7.1-1.7,10.6l-10.3,48.8
			c-6.5,30.7-17.6,53.3-33.5,67.8C430.9,474.8,409.6,482,382.9,482z M389.2,444.5c13.8,0,24.6-4.4,32.4-13.1
			c7.8-8.8,13.2-20,16.1-33.8l12.2-56.3c1.3-5.6,1.9-11,1.9-16c0-10.2-2.6-18.4-7.8-24.4c-5.2-6-13.1-9.1-23.8-9.1
			c-13.8,0-24.6,4.4-32.4,13.1c-7.8,8.8-13.2,20-16.1,33.8L359.5,395c-1.3,5.6-1.9,11-1.9,16c0,10.2,2.6,18.4,7.8,24.4
			C370.6,441.5,378.6,444.5,389.2,444.5z M404.8,394.4c-7.1,0-13.3-2.6-18.5-7.8c-5.2-5.2-7.8-11.4-7.8-18.5
			c0-7.1,2.6-13.2,7.8-18.5c5.2-5.2,11.4-7.8,18.5-7.8c7.1,0,13.3,2.6,18.5,7.8c5.2,5.2,7.8,11.4,7.8,18.5c0,7.1-2.6,13.3-7.8,18.5
			C418.1,391.8,411.9,394.4,404.8,394.4z"/>
		<path d="M568.8,523c-14,0-25.9-3-35.8-9.1c-9.9-6-17.5-14.3-22.7-24.7c-5.2-10.4-7.8-22-7.8-34.7c0-3.5,0.2-7,0.5-10.5
			c0.3-3.4,0.9-6.9,1.7-10.5l10.3-48.8c6.5-30.7,17.7-53.3,33.6-67.8c16-14.5,37.2-21.8,63.7-21.8c14,0,25.9,3,35.8,9.1
			c9.9,6.1,17.5,14.2,22.7,24.6c5.2,10.3,7.8,22,7.8,34.9c0,3.3-0.2,6.8-0.5,10.3c-0.3,3.6-0.9,7.1-1.7,10.6l-10.3,48.8
			c-6.5,30.7-17.6,53.3-33.5,67.8C616.8,515.8,595.6,523,568.8,523z M575.1,485.5c13.8,0,24.6-4.4,32.4-13.1
			c7.8-8.8,13.2-20,16.1-33.8l12.2-56.3c1.3-5.6,1.9-11,1.9-16c0-10.2-2.6-18.4-7.8-24.4c-5.2-6-13.1-9.1-23.8-9.1
			c-13.8,0-24.6,4.4-32.4,13.1c-7.8,8.8-13.2,20-16.1,33.8L545.4,436c-1.3,5.6-1.9,11-1.9,16c0,10.2,2.6,18.4,7.8,24.4
			C556.5,482.4,564.5,485.5,575.1,485.5z M590.8,435.4c-7.1,0-13.3-2.6-18.5-7.8c-5.2-5.2-7.8-11.4-7.8-18.5
			c0-7.1,2.6-13.2,7.8-18.5c5.2-5.2,11.4-7.8,18.5-7.8c7.1,0,13.2,2.6,18.5,7.8c5.2,5.2,7.8,11.4,7.8,18.5c0,7.1-2.6,13.3-7.8,18.5
			C604,432.8,597.8,435.4,590.8,435.4z"/>
	</g>
</g>
<g id="_x31_0" class="st0">
	<g class="st6">
		<path d="M231.3,460.4V421h62l33.8-159h-5.6l-36.6,75.1h-41.3v-3.8l48.5-92h80.8L334.6,421h54.1v39.4H231.3z"/>
		<path d="M485.7,514.3c-14,0-25.9-3-35.8-9.1c-9.9-6-17.5-14.3-22.7-24.7c-5.2-10.4-7.8-22-7.8-34.7c0-3.5,0.2-7,0.5-10.5
			c0.3-3.4,0.9-6.9,1.7-10.5l10.3-48.8c6.5-30.7,17.7-53.3,33.6-67.8c16-14.5,37.2-21.8,63.7-21.8c14,0,25.9,3,35.8,9.1
			c9.9,6.1,17.5,14.2,22.7,24.6c5.2,10.3,7.8,22,7.8,34.9c0,3.3-0.2,6.8-0.5,10.3c-0.3,3.6-0.9,7.1-1.7,10.6L583,424.8
			c-6.5,30.7-17.6,53.3-33.5,67.8C533.7,507.1,512.4,514.3,485.7,514.3z M492,476.7c13.8,0,24.6-4.4,32.4-13.1
			c7.8-8.8,13.2-20,16.1-33.8l12.2-56.3c1.3-5.6,1.9-11,1.9-16c0-10.2-2.6-18.4-7.8-24.4c-5.2-6-13.1-9.1-23.8-9.1
			c-13.8,0-24.6,4.4-32.4,13.1c-7.8,8.8-13.2,20-16.1,33.8l-12.2,56.3c-1.3,5.6-1.9,11-1.9,16c0,10.2,2.6,18.4,7.8,24.4
			C473.4,473.7,481.3,476.7,492,476.7z M507.6,426.7c-7.1,0-13.3-2.6-18.5-7.8c-5.2-5.2-7.8-11.4-7.8-18.5c0-7.1,2.6-13.2,7.8-18.5
			c5.2-5.2,11.4-7.8,18.5-7.8c7.1,0,13.2,2.6,18.5,7.8c5.2,5.2,7.8,11.4,7.8,18.5c0,7.1-2.6,13.3-7.8,18.5
			C520.9,424.1,514.7,426.7,507.6,426.7z"/>
	</g>
</g>
<g id="_x35_0" class="st0">
	<g class="st6">
		<path d="M305.5,464.8c-15,0-28.1-2.5-39.3-7.5c-11.2-5-19.8-12.1-26-21.1c-6.2-9.1-9.2-19.5-9.2-31.1c0-4.2,0.5-8.9,1.6-14.1
			l1.6-7.5h41.3l-0.9,4.4c-0.8,3.6-1.3,6.6-1.3,9.1c0,8.3,3.1,15.2,9.4,20.5c6.3,5.3,16,8,29.1,8c9.4,0,17.6-2,24.7-5.9
			c7.1-4,12.6-9.3,16.6-16.1c4-6.8,5.9-14.4,5.9-23c0-11.1-2.5-18.9-7.5-23.6c-5-4.7-11.3-7-18.8-7c-5.8,0-10.6,1.3-14.4,3.9
			c-3.8,2.6-6.6,5.7-8.5,9.2h-67.6L268,241.3h140.2v39.4h-107l-12.8,59.5h5.6c4.6-9.2,11-16.5,19.2-21.9c8.2-5.4,19-8.1,32.4-8.1
			c16.7,0,30.3,5.6,40.7,16.7c10.4,11.2,15.7,26.3,15.7,45.5c0,16.7-3.7,32.1-11.1,46.2c-7.4,14.1-18.3,25.3-32.7,33.6
			C343.7,460.7,326.2,464.8,305.5,464.8z"/>
		<path d="M485.7,514.3c-14,0-25.9-3-35.8-9.1c-9.9-6-17.5-14.3-22.7-24.7c-5.2-10.4-7.8-22-7.8-34.7c0-3.5,0.2-7,0.5-10.5
			c0.3-3.4,0.9-6.9,1.7-10.5l10.3-48.8c6.5-30.7,17.7-53.3,33.6-67.8c16-14.5,37.2-21.8,63.7-21.8c14,0,25.9,3,35.8,9.1
			c9.9,6.1,17.5,14.2,22.7,24.6c5.2,10.3,7.8,22,7.8,34.9c0,3.3-0.2,6.8-0.5,10.3c-0.3,3.6-0.9,7.1-1.7,10.6L583,424.8
			c-6.5,30.7-17.6,53.3-33.5,67.8C533.7,507.1,512.4,514.3,485.7,514.3z M492,476.7c13.8,0,24.6-4.4,32.4-13.1
			c7.8-8.8,13.2-20,16.1-33.8l12.2-56.3c1.3-5.6,1.9-11,1.9-16c0-10.2-2.6-18.4-7.8-24.4c-5.2-6-13.1-9.1-23.8-9.1
			c-13.8,0-24.6,4.4-32.4,13.1c-7.8,8.8-13.2,20-16.1,33.8l-12.2,56.3c-1.3,5.6-1.9,11-1.9,16c0,10.2,2.6,18.4,7.8,24.4
			C473.4,473.7,481.3,476.7,492,476.7z M507.6,426.7c-7.1,0-13.3-2.6-18.5-7.8c-5.2-5.2-7.8-11.4-7.8-18.5c0-7.1,2.6-13.2,7.8-18.5
			c5.2-5.2,11.4-7.8,18.5-7.8c7.1,0,13.2,2.6,18.5,7.8c5.2,5.2,7.8,11.4,7.8,18.5c0,7.1-2.6,13.3-7.8,18.5
			C520.9,424.1,514.7,426.7,507.6,426.7z"/>
	</g>
</g>
<g id="_x31_" class="st0">
	<g class="st6">
		<path d="M324.6,481.4V442h62l33.8-159h-5.6l-36.6,75.1h-41.3v-3.8l48.5-92h80.8L427.9,442H482v39.4H324.6z"/>
	</g>
</g>
<g id="_x31__backup" class="st0">
	<path id="SVGID_x5F_1_x5F_" class="st17" d="M68.4,380.7l122.3-24.2c81.7-16.2,166.4-8.5,243.7,22.2
		c83.8,33.2,176.1,39.4,263.6,17.7l10.6-2.6"/>
	<text class="st6 st18 st19">	<textPath  xlink:href="#SVGID_x5F_1_x5F_" startOffset="11.4014%">
1	</textPath>
</text>
</g>
<g id="journal" class="st0">
	<g class="st6">
		<path class="st20" d="M98.1,659.1v51.4c0,28.4,23,51.4,51.4,51.4h513.6c28.4,0,51.4-23,51.4-51.4V94.2c0-28.4-23-51.4-51.4-51.4
			H149.5c-28.4,0-51.4,23-51.4,51.4v51.4"/>
	</g>
	<g class="st6">
		<line class="st9" x1="57.2" y1="276.6" x2="141.3" y2="276.6"/>
		<line class="st9" x1="99.2" y1="236.7" x2="99.2" y2="276"/>
	</g>
	<g class="st6">
		<line class="st9" x1="58.2" y1="418.6" x2="142.2" y2="418.6"/>
		<line class="st9" x1="100.2" y1="378.7" x2="100.2" y2="418.1"/>
	</g>
	<g class="st6">
		<line class="st9" x1="58.2" y1="560.6" x2="142.2" y2="560.6"/>
		<line class="st9" x1="100.2" y1="520.7" x2="100.2" y2="560.1"/>
	</g>
</g>
<g id="discipline" class="st0">
	<polygon class="st10" points="619,445.9 619,318.5 754.9,318.5 754.9,49.5 502.5,49.5 186.2,445.9 	"/>
	<polyline class="st10" points="174.8,318.5 47.6,318.5 47.6,49.5 291.4,49.5 350.2,96.7 	"/>
	<polyline class="st10" points="186.2,532.7 186.2,749.5 619,749.5 619,532.7 	"/>
	<g class="st6">
		<line class="st14" x1="396.6" y1="459.2" x2="320.6" y2="612.4"/>
		<line class="st14" x1="397.1" y1="459.2" x2="473.1" y2="612.4"/>
	</g>
</g>
<g id="hotstreak" class="st0">
	<path class="st4" d="M245.7,259.6c33-50.8,65.8-103,86.2-154.1c8.7-21.7,35.3-31.8,53.9-17.7c112.4,85.6,280.9,251.1,280.9,405.1
		c0,39.1-6.6,72.2-17.7,100 M182.2,359.6c-28.4,48.5-48.9,93.8-48.9,133.3c0,103.6,74.9,177,136,212.4c14,8.1,27.7-8.8,20.3-23.2
		c-16.2-31.8-31.9-72.8-31.9-105.8c0-45.7,34.8-82.5,59.7-106c6.4-6,16.4-5.9,21.9,0.9c10.3,12.7,20.5,28.7,30.8,41.7
		c6,7.6,17.3,7,22.5-1.2c32.9-50.7,40.5-115.3,42.3-163.6c0.5-14.6,17.6-21.7,27.4-10.9c42.8,47.3,97.6,124.1,97.6,189.1
		c0,60.5-33.9,124.9-63.3,167c-8.6,12.4,0.8,29.1,15.2,24.6c17.2-5.3,35.6-13.3,53.6-24.6"/>
</g>
<g id="big_winner" class="st0">
	<path class="st4" d="M107.6,687.7c39.1,39.1,101.9,39.1,227.6,39.1h133.3c125.7,0,188.6,0,227.6-39.1
		c39.1-39,39.1-101.9,39.1-227.6c0-39,0-71.9-1.2-100 M696.2,232.4c-39-39.1-101.9-39.1-227.6-39.1H335.2
		c-125.7,0-188.6,0-227.6,39.1c-39.1,39.1-39.1,101.9-39.1,227.6c0,39,0,71.9,1.2,100"/>
	<path class="st4" d="M401.9,60.1c62.9,0,94.3,0,113.8,19.5c19.5,19.5,19.5,51,19.5,113.8 M288.1,79.6
		c-19.5,19.5-19.5,51-19.5,113.8"/>
	<path class="st4" d="M401.9,571.2c36.8,0,66.7-24.9,66.7-55.6c0-30.7-29.8-55.6-66.7-55.6s-66.7-24.9-66.7-55.6
		c0-30.7,29.8-55.6,66.7-55.6 M401.9,571.2c-36.8,0-66.7-24.9-66.7-55.6 M401.9,571.2v22.2 M401.9,326.7v22.2 M401.9,348.9
		c36.8,0,66.7,24.9,66.7,55.6"/>
</g>
</svg>
