<?xml version="1.0" encoding="utf-8"?>
<!-- Generator: Adobe Illustrator 24.1.2, SVG Export Plug-In . SVG Version: 6.00 Build 0)  -->
<svg version="1.1" id="Layer_1" xmlns="http://www.w3.org/2000/svg" xmlns:xlink="http://www.w3.org/1999/xlink" x="0px" y="0px"
	 viewBox="0 0 800 800" style="enable-background:new 0 0 800 800;" xml:space="preserve">
<style type="text/css">
	.st0{fill:none;stroke:#000000;stroke-width:66;stroke-linecap:round;stroke-miterlimit:133.3333;}
	.st1{fill:none;stroke:#000000;stroke-width:66;stroke-linecap:round;}
</style>
<g id="BG2">
	<path class="st0" d="M729.1,399c0,157.1,0,235.7-48.8,284.5s-127.4,48.8-284.5,48.8s-235.7,0-284.5-48.8
		C62.4,634.7,62.4,556.1,62.4,399s0-235.7,48.8-284.5s127.4-48.8,284.5-48.8c20,0,38.8,0,56.4,0.1"/>
</g>
<g id="Layer_58">
	<line class="st1" x1="204.4" y1="351.8" x2="439.9" y2="351.8"/>
	<line class="st1" x1="204.4" y1="478.6" x2="580" y2="478.6"/>
	<line class="st1" x1="204.4" y1="605.3" x2="580" y2="605.3"/>
	<line class="st1" x1="546" y1="145.4" x2="705.7" y2="145.4"/>
	<line class="st1" x1="529.1" y1="268.4" x2="688.8" y2="268.4"/>
	<line class="st1" x1="689.6" y1="99.2" x2="641.2" y2="319.3"/>
	<line class="st1" x1="593.5" y1="97.6" x2="545" y2="317.7"/>
	<line class="st1" x1="204.4" y1="208.1" x2="439.9" y2="208.1"/>
</g>
</svg>
