<?xml version="1.0" encoding="utf-8"?>
<!-- Generator: Adobe Illustrator 24.1.2, SVG Export Plug-In . SVG Version: 6.00 Build 0)  -->
<svg version="1.1" id="Layer_1" xmlns="http://www.w3.org/2000/svg" xmlns:xlink="http://www.w3.org/1999/xlink" x="0px" y="0px"
	 viewBox="0 0 800 800" style="enable-background:new 0 0 800 800;" xml:space="preserve">
<style type="text/css">
	.st0{fill:none;stroke:#000000;stroke-width:66;stroke-linecap:round;stroke-linejoin:round;stroke-miterlimit:133.3333;}
	.st1{fill:none;stroke:#020202;stroke-width:66;stroke-linecap:round;stroke-linejoin:round;stroke-miterlimit:133.3333;}
</style>
<g id="dark">
	<path class="st0" d="M387.3,169.3c54.2-53.9,129-87.3,211.5-87.3c32.8,0,64.3,5.2,93.8,14.9C596.5,155.4,532.2,261.2,532.2,382
		s64.3,226.6,160.4,285.1c-29.5,9.7-61,14.9-93.8,14.9c-61.7,0-119-18.6-166.7-50.5"/>
	<path class="st1" d="M330.3,253c-9.7-24.7-44.5-24.7-54.2,0l-26,66c-3,7.5-8.9,13.5-16.4,16.5l-65.8,26c-24.6,9.7-24.6,44.7,0,54.4
		l65.8,26c7.5,3,13.5,8.9,16.4,16.5l26,66c9.7,24.7,44.5,24.7,54.2,0l26-66c3-7.5,8.9-13.5,16.4-16.5l65.8-26
		c24.6-9.7,24.6-44.7,0-54.4l-65.8-26c-7.5-3-13.5-8.9-16.4-16.5L330.3,253z"/>
	<path class="st0" d="M209,564.9c-9.7-24.7-44.5-24.7-54.2,0l-9.5,24.1c-3,7.5-8.9,13.5-16.4,16.5l-24,9.5
		c-24.6,9.7-24.6,44.7,0,54.4l24,9.5c7.5,3,13.5,8.9,16.4,16.5l9.5,24.1c9.7,24.7,44.5,24.7,54.2,0l9.5-24.1
		c3-7.5,8.9-13.5,16.4-16.5l24-9.5c24.6-9.7,24.6-44.7,0-54.4l-24-9.5c-7.5-3-13.5-8.9-16.4-16.5L209,564.9z"/>
</g>
</svg>
