<?xml version="1.0" encoding="utf-8"?>
<!-- Generator: Adobe Illustrator 24.1.2, SVG Export Plug-In . SVG Version: 6.00 Build 0)  -->
<svg version="1.1" id="Layer_2_1_" xmlns="http://www.w3.org/2000/svg" xmlns:xlink="http://www.w3.org/1999/xlink" x="0px" y="0px"
	 viewBox="0 0 800 800" style="enable-background:new 0 0 800 800;" xml:space="preserve">
<path d="M792.6,536.1c-5.9-30.2-35.2-49.9-65.5-44c-64.4,13.7-131.4,9.5-193.6-12.1c-167-58.5-264.6-233.1-231.8-406.9
	c4-21.3-5-42.8-22.8-55c-17.5-12.8-40.8-14.2-59.7-3.7C108.1,75.9,31.5,185,11.4,310.4C-25.4,536.7,128,750.1,354.3,787.2
	c22.2,3.6,44.7,5.5,67.2,5.5c153.6-0.3,294.6-85.4,366.4-221.3C793.3,560.5,794.9,548.1,792.6,536.1z M629,669.4
	c-160.8,115-384.4,77.9-499.4-82.9c-7.4-10.4-14.3-21.1-20.6-32.2C11.4,382.2,71.8,163.6,243.9,66.1
	C206.5,267.5,321.6,466.1,515,533.9c70.9,24.4,147.1,29.4,220.6,14.6C709.7,596.4,673.2,637.7,629,669.4z"/>
</svg>
