<?xml version="1.0" encoding="utf-8"?>
<!-- Generator: Adobe Illustrator 24.1.2, SVG Export Plug-In . SVG Version: 6.00 Build 0)  -->
<svg version="1.1" id="Layer_1" xmlns="http://www.w3.org/2000/svg" xmlns:xlink="http://www.w3.org/1999/xlink" x="0px" y="0px"
	 viewBox="0 0 800 800" style="enable-background:new 0 0 800 800;" xml:space="preserve">
<style type="text/css">
	.st0{fill:none;stroke:#000000;stroke-width:66;stroke-miterlimit:133.3333;}
	.st1{fill:none;stroke:#000000;stroke-width:66;stroke-linecap:round;stroke-linejoin:round;stroke-miterlimit:133.3333;}
</style>
<path class="st0" d="M483.3,150c0,46-37.3,83.3-83.3,83.3S316.7,196,316.7,150S354,66.7,400,66.7S483.3,104,483.3,150z"/>
<path class="st1" d="M100,566.7l86.3-43.6c8.4-4.2,13.7-12.9,13.7-22.4c0-98,71.3-181.8,166.9-197.9c21.8-3.7,44.5-3.7,66.2,0
	C528.7,318.9,600,402.7,600,500.7c0,9.5,5.3,18.2,13.7,22.4l86.3,43.6"/>
<path class="st1" d="M316.7,533.3l-34.7,46.3c-1.1,1.4-1.6,2.1-2.1,2.8c-8.8,11.1-20.8,19.1-34.5,22.9c-0.8,0.2-1.7,0.4-3.4,0.9
	l-49.5,12.4c-34.8,8.7-59.1,39.9-59.1,75.7c0,21.6,17.5,39,39,39h51.9c20,0,30,0,39.7-1.1c22.7-2.7,44.6-10,64.3-21.4
	c8.4-4.9,16.4-10.9,32.4-22.9l6.1-4.5 M366.7,683.3l66.7-50 M366.7,683.3l84.7,31.7c20.3,7.6,30.5,11.4,41,13.9
	c5.4,1.3,10.9,2.3,16.5,3c10.7,1.4,21.5,1.4,43.2,1.4h75.6c21.6,0,39-17.5,39-39c0-35.8-24.4-67.1-59.1-75.7L558,606.2
	c-1.7-0.4-2.6-0.6-3.4-0.9c-13.6-3.8-25.7-11.8-34.5-22.9c-0.5-0.7-1.1-1.4-2.1-2.8l-34.7-46.3"/>
</svg>
