<?xml version="1.0" encoding="utf-8"?>
<!-- Generator: Adobe Illustrator 24.1.2, SVG Export Plug-In . SVG Version: 6.00 Build 0)  -->
<svg version="1.1" id="Layer_1" xmlns="http://www.w3.org/2000/svg" xmlns:xlink="http://www.w3.org/1999/xlink" x="0px" y="0px"
	 viewBox="0 0 800 800" style="enable-background:new 0 0 800 800;" xml:space="preserve">
<style type="text/css">
	.st0{fill:none;stroke:#000000;stroke-width:33;stroke-linecap:round;stroke-miterlimit:133.3333;}
	.st1{fill:none;stroke:#000000;stroke-width:66;stroke-linecap:round;stroke-miterlimit:10;}
</style>
<line class="st0" x1="336.6" y1="583.9" x2="423" y2="583.9"/>
<line class="st0" x1="351" y1="661.9" x2="408.6" y2="661.9"/>
<path class="st0" d="M238.6,267.4c-6.5,14.9-10,31.1-10,47.9v1.8c0.2,43.2,18.8,84.6,52.1,116.2l23.8,22.4
	c6.7,6.3,10.5,15.1,10.5,24.3c0,13.8,11.2,25,25,25h79.6c13.8,0,25-11.2,25-25c0-9.2,3.8-18,10.5-24.3l23.8-22.4
	c33.3-31.6,51.9-73.1,52.1-116.2v-1.8c0-73.7-67.7-134.3-151.2-134.3c-23.2,0-45.2,4.7-64.8,13"/>
<g>
	<path class="st1" d="M454,73.3c-29.5-10-60.9-14.6-92.7-13.4C216.5,68,103.8,188.5,105.4,333.4v8c0,3,0.4,6.1,1.2,9l67.9,255.7
		L142,718.7"/>
	<path class="st1" d="M527.7,728.5v-70.4h35.2c38.9,0,70.3-31.5,70.4-70.4v-70.4h35.2c5.2,0,10.3-1.1,15-3.4
		c17.6-8.3,25.1-29.3,16.8-46.8l-67-142.3v-1.1c0.1-26.8-4-53.3-11.8-78.4"/>
</g>
</svg>
