<?xml version="1.0" encoding="utf-8"?>
<!-- Generator: Adobe Illustrator 24.1.2, SVG Export Plug-In . SVG Version: 6.00 Build 0)  -->
<svg version="1.1" xmlns="http://www.w3.org/2000/svg" xmlns:xlink="http://www.w3.org/1999/xlink" x="0px" y="0px"
	 viewBox="0 0 800 800" style="enable-background:new 0 0 800 800;" xml:space="preserve">
<style type="text/css">
	.st0{display:none;}
	
		.st1{display:inline;fill:none;stroke:#000000;stroke-width:66;stroke-linecap:round;stroke-linejoin:round;stroke-miterlimit:133.3333;}
	
		.st2{display:inline;fill:none;stroke:#000000;stroke-width:33;stroke-linecap:round;stroke-linejoin:round;stroke-miterlimit:133.3333;}
	.st3{display:inline;fill:none;stroke:#000000;stroke-width:33;stroke-miterlimit:133.3333;}
	.st4{display:inline;fill:none;stroke:#000000;stroke-width:66;stroke-linecap:round;stroke-miterlimit:133.3333;}
	.st5{display:inline;fill:none;stroke:#000000;stroke-width:33;stroke-linecap:round;stroke-miterlimit:133.3333;}
	.st6{display:inline;fill:none;stroke:#000000;stroke-width:66;stroke-linecap:round;stroke-miterlimit:10;}
	.st7{display:inline;fill:none;stroke:#000000;stroke-width:33;stroke-linecap:round;stroke-miterlimit:10;}
	.st8{display:inline;fill:none;stroke:#000000;stroke-width:66;stroke-miterlimit:133.3333;}
	.st9{display:inline;}
	.st10{fill:#020202;}
	.st11{display:inline;fill:none;stroke:#000000;stroke-width:33;stroke-linecap:round;stroke-linejoin:round;stroke-miterlimit:10;}
	.st12{display:inline;fill:none;stroke:#000000;stroke-width:66;stroke-miterlimit:10;}
	
		.st13{display:inline;fill:none;stroke:#000000;stroke-width:66.6667;stroke-linecap:round;stroke-linejoin:round;stroke-miterlimit:66.6667;}
	.st14{fill:none;stroke:#000000;stroke-width:66;stroke-linecap:round;stroke-linejoin:round;stroke-miterlimit:133.3333;}
	.st15{fill:none;stroke:#000000;stroke-width:66;stroke-linecap:round;stroke-miterlimit:133.3333;}
	.st16{display:inline;fill:none;stroke:#000000;stroke-width:66;stroke-linecap:round;stroke-linejoin:round;stroke-miterlimit:10;}
	.st17{fill:none;stroke:#000000;stroke-width:66;stroke-linecap:round;stroke-linejoin:round;stroke-miterlimit:10;}
	.st18{fill-opacity:0;stroke:#000000;stroke-width:66;stroke-linecap:round;stroke-linejoin:round;stroke-miterlimit:25;}
	.st19{fill:none;stroke:#000000;stroke-width:66;stroke-linecap:round;stroke-linejoin:round;stroke-miterlimit:25;}
</style>
<g id="calendar" class="st0">
	<path class="st1" d="M580,699H202.4c-37.3,0-56,0-70.3-7.3c-12.5-6.4-22.7-16.6-29.1-29.1c-7.3-14.3-7.3-32.9-7.3-70.3v-320
		c0-37.3,0-56,7.3-70.3c6.4-12.5,16.6-22.7,29.1-29.1c14.3-7.3,32.9-7.3,70.3-7.3h386.7c37.3,0,56,0,70.3,7.3
		c12.5,6.4,22.7,16.6,29.1,29.1c7.3,14.3,7.3,32.9,7.3,70.3v306 M229,99v66.7 M562.4,99v66.7 M95.7,299h600"/>
</g>
<g id="month" class="st0">
	<rect x="202.9" y="398.8" class="st2" width="379.3" height="192.3"/>
</g>
<g id="week" class="st0">
	<rect x="202.9" y="398.8" class="st2" width="379.3" height="104.3"/>
</g>
<g id="day" class="st0">
	<rect x="202.9" y="398.8" class="st2" width="118.3" height="104.3"/>
</g>
<g id="screenshot" class="st0">
	<circle class="st3" cx="400" cy="433.3" r="100"/>
	<path class="st4" d="M66.7,445.5c0-102.1,0-153.2,25-189.9c10.8-15.9,24.7-29.5,40.9-40.1c24-15.8,54.1-21.4,100.1-23.4
		c22,0,40.9-16.3,45.2-37.5c6.5-31.7,34.8-54.5,67.8-54.5h108.9c32.9,0,61.3,22.8,67.8,54.5c4.3,21.1,23.2,37.5,45.2,37.5
		c46,2,76.1,7.6,100.1,23.4c16.2,10.6,30.1,24.2,40.9,40.1c25,36.7,25,87.8,25,189.9c0,102.1,0,153.2-25,189.9
		c-10.8,15.9-24.7,29.5-40.9,40.1C630.1,700,578.1,700,474.1,700H325.9c-104,0-156.1,0-193.4-24.5c-16.2-10.6-30.1-24.3-40.9-40.1
		C84.6,625,79.5,613.5,75.9,600"/>
	<path class="st5" d="M633.3,333.3H600"/>
</g>
<g id="settings" class="st0">
	<circle class="st3" cx="396.3" cy="399.3" r="100"/>
	<path class="st4" d="M118.3,353.9c15.8,9.9,25.9,26.8,25.9,45.4c0,18.6-10.1,35.5-25.9,45.4c-10.7,6.7-17.6,12.1-22.5,18.5
		c-10.8,14-15.5,31.8-13.2,49.3c1.7,13.1,9.5,26.6,25,53.5c15.5,26.9,23.3,40.3,33.8,48.4c14,10.8,31.8,15.5,49.3,13.2
		c8-1.1,16.1-4.3,27.3-10.3c16.4-8.7,36.1-9,52.2,0.3c16.1,9.3,25.6,26.5,26.3,45.1c0.5,12.6,1.7,21.3,4.8,28.8
		c6.8,16.3,19.7,29.3,36.1,36.1c12.3,5.1,27.8,5.1,58.8,5.1s46.6,0,58.8-5.1c16.3-6.8,29.3-19.7,36.1-36.1
		c3.1-7.5,4.3-16.1,4.8-28.8c0.7-18.6,10.2-35.8,26.3-45.1c16.1-9.3,35.8-9,52.2-0.3c11.2,5.9,19.3,9.2,27.3,10.3
		c17.5,2.3,35.3-2.4,49.3-13.2c10.5-8.1,18.3-21.5,33.8-48.4c6.9-12,12.3-21.3,16.3-29.1 M674.2,444.6
		c-15.8-9.9-25.9-26.8-25.9-45.4c0-18.6,10.1-35.5,25.9-45.4c10.7-6.7,17.6-12.1,22.5-18.5c10.8-14,15.5-31.8,13.2-49.3
		c-1.7-13.1-9.5-26.6-25-53.5c-15.5-26.9-23.3-40.4-33.8-48.4c-14-10.8-31.8-15.5-49.3-13.2c-8,1.1-16.1,4.3-27.3,10.3
		c-16.5,8.7-36.1,9-52.2-0.3c-16.1-9.3-25.6-26.5-26.3-45.1c-0.5-12.7-1.7-21.3-4.8-28.8c-6.8-16.3-19.7-29.3-36.1-36.1
		c-12.3-5.1-27.8-5.1-58.8-5.1s-46.6,0-58.8,5.1c-16.3,6.8-29.3,19.7-36.1,36.1c-3.1,7.5-4.3,16.1-4.8,28.8
		c-0.7,18.6-10.2,35.8-26.3,45.1c-16.1,9.3-35.8,9-52.2,0.3c-11.2-5.9-19.3-9.2-27.3-10.3c-17.5-2.3-35.3,2.4-49.3,13.2
		c-10.5,8.1-18.3,21.5-33.8,48.4c-6.9,12-12.3,21.3-16.3,29.1"/>
</g>
<g id="delete" class="st0">
	<line class="st6" x1="124.4" y1="215.5" x2="689.4" y2="215.5"/>
	<line class="st7" x1="515.9" y1="395" x2="515.9" y2="564.8"/>
	<line class="st7" x1="297.9" y1="395" x2="297.9" y2="564.8"/>
	<path class="st6" d="M297.9,134c0,0,23.9-62.5,114.5-62.5S515.9,134,515.9,134"/>
	<path class="st6" d="M655.3,313.1v345c0,30.3-24.8,55-55,55H213.6c-30.3,0-55-24.8-55-55v-345"/>
	<line class="st7" x1="406.9" y1="393.6" x2="406.9" y2="563.4"/>
</g>
<g id="rec" class="st0">
	<path class="st8" d="M229.1,249c0-92,74.6-166.7,166.7-166.7c92,0,166.7,74.6,166.7,166.7v100c0,92-74.6,166.7-166.7,166.7
		c-92,0-166.7-74.6-166.7-166.7V249z"/>
	<path class="st5" d="M429.1,249h133.3"/>
	<path class="st5" d="M429.1,349h133.3"/>
	<path class="st4" d="M395.8,615.7v100"/>
	<path class="st4" d="M126.4,393.3c0,0,20.7,104.5,89.5,158.6c72.8,57.2,179.9,63.8,179.9,63.8"/>
	<path class="st4" d="M665.2,375.6c0,0,5.7,72-62.3,149.7c-54.7,62.5-114.1,78.5-114.1,78.5"/>
</g>
<g id="share" class="st0">
	<path class="st4" d="M132,417.6c0,46,37.3,83.3,83.3,83.3s83.3-37.3,83.3-83.3s-37.3-83.3-83.3-83.3"/>
	<path class="st5" d="M465.4,234.3L298.7,350.9"/>
	<path class="st5" d="M465.4,600.9L298.7,484.3"/>
	<path class="st4" d="M548.7,717.6c46,0,83.3-37.3,83.3-83.3S594.7,551,548.7,551s-83.3,37.3-83.3,83.3"/>
	<path class="st4" d="M620.9,242.6c-23,39.9-74,53.5-113.8,30.5c-39.9-23-53.5-74-30.5-113.8c23-39.9,74-53.5,113.8-30.5"/>
</g>
<g id="premium" class="st0">
	<path class="st1" d="M663.7,399.8c0,148.7-182,256.5-245.3,289.4c-6.8,3.6-10.3,5.3-15,6.3c-3.7,0.7-9,0.7-12.7,0
		c-4.7-0.9-8.2-2.7-15-6.3c-63.3-33-245.3-140.7-245.3-289.4V273.7c0-26.7,0-40,4.4-51.4c3.9-10.1,10.1-19.1,18.2-26.3
		c9.2-8.1,21.7-12.8,46.6-22.1l178.7-67c6.9-2.6,10.4-3.9,14-4.4c3.2-0.5,6.4-0.5,9.5,0c3.6,0.5,7,1.8,14,4.4l178.7,67
		c25,9.4,37.4,14,46.6,22.1c8.1,7.2,14.4,16.2,18.2,26.3c4.4,11.5,4.4,24.8,4.4,51.4V399.8z"/>
</g>
<g id="Layer_30" class="st0">
	<polyline class="st1" points="379.1,299.8 329.1,399.8 462.4,399.8 412.4,499.8 	"/>
</g>
<g id="Layer_32" class="st0">
	<polygon class="st2" points="397,292.2 432,363 510.1,374.4 453.6,429.5 466.9,507.4 397,470.6 327.1,507.4 340.4,429.5 
		283.8,374.4 362,363 	"/>
</g>
<g id="Layer_31" class="st0">
	<path class="st2" d="M534.7,228.4v49 M534.7,326.4v-49 M534.7,277.4h-49 M534.7,277.4h49"/>
</g>
<g id="target" class="st0">
	<path class="st2" d="M62.4,399h100"/>
	<path class="st2" d="M629.1,399h100"/>
	<path class="st2" d="M395.8,732.3v-100"/>
	<path class="st2" d="M395.8,165.7v-100"/>
	<path class="st2" d="M329.1,399h66.7h66.7"/>
	<path class="st2" d="M395.8,465.7V399v-66.7"/>
	<path class="st1" d="M229.1,110.3c49-28.4,106-44.6,166.7-44.6c184.1,0,333.3,149.2,333.3,333.3c0,184.1-149.2,333.3-333.3,333.3
		C211.7,732.3,62.4,583.1,62.4,399c0-60.7,16.2-117.6,44.6-166.7"/>
</g>
<g id="warning" class="st0">
	<path class="st4" d="M206.1,299c76.2-133.3,122-200,189.7-200c77,0,125.7,86.2,222.9,258.7l12.1,21.5
		c80.8,143.3,121.3,215,84.7,267.4C679,699,588.7,699,407.9,699h-24.2c-180.8,0-271.1,0-307.7-52.4c-31.7-45.5-5.4-105.5,54.9-214.3
		"/>
	<path class="st4" d="M395.8,265.7v166.7"/>
	<line class="st4" x1="395.5" y1="563.6" x2="396" y2="563.6"/>
</g>
<g id="robot" class="st0">
	<path class="st1" d="M634.3,410.7h33.3c36.8,0,66.7,29.8,66.7,66.7v33.3c0,36.8-29.8,66.7-66.7,66.7l-33.3,2 M167.6,462.7v66.7
		 M167.6,410.7h-33.3c-36.8,0-66.7,29.8-66.7,66.7v33.3c0,36.8,29.8,66.7,66.7,66.7h33.3 M401,277.4H301
		c-73.6,0-133.3,59.7-133.3,133.3v2l-0.1,0v164.7v-0.1V721h100h266.7h100V577.3v2.1V410.7v0l0,0c0-73.6-59.7-133.3-133.3-133.3H401
		 M301,412.7L301,412.7 M501,412.7L501,412.7"/>
	<g class="st9">
		<path d="M401,101.7c18.4,0,33.3,14.9,33.3,33.3s-14.9,33.3-33.3,33.3s-33.3-14.9-33.3-33.3S382.6,101.7,401,101.7 M401,35.7
			c-54.8,0-99.3,44.5-99.3,99.3s44.5,99.3,99.3,99.3s99.3-44.5,99.3-99.3S455.7,35.7,401,35.7L401,35.7z"/>
	</g>
	<rect x="268.5" y="517.3" class="st2" width="261" height="102.5"/>
</g>
<g id="dark" class="st0">
	<path class="st1" d="M387.3,186.3c54.2-53.9,129-87.3,211.5-87.3c32.8,0,64.3,5.2,93.8,14.9C596.5,172.4,532.2,278.2,532.2,399
		c0,120.8,64.3,226.6,160.4,285.1c-29.5,9.7-61,14.9-93.8,14.9c-61.7,0-119-18.6-166.7-50.5"/>
	<g class="st9">
		<path class="st10" d="M310,328.8c6.2,0,12.3,3.4,15,10.2l14.3,36.5c1.6,4.2,4.9,7.5,9.1,9.1l36.4,14.4c13.6,5.4,13.6,24.7,0,30.1
			l-36.4,14.4c-4.2,1.6-7.4,4.9-9.1,9.1l-14.3,36.5c-2.7,6.8-8.8,10.2-15,10.2s-12.3-3.4-15-10.2l-14.3-36.5
			c-1.6-4.2-4.9-7.5-9.1-9.1l-36.4-14.4c-13.6-5.4-13.6-24.7,0-30.1l36.4-14.4c4.2-1.6,7.4-4.9,9.1-9.1L295,339
			C297.6,332.2,303.8,328.8,310,328.8 M310,295.8c-20.3,0-38.3,12.2-45.7,31.2l-11.7,29.7L223,368.4c-18.9,7.5-31.1,25.4-31.1,45.7
			s12.2,38.3,31.1,45.7l29.6,11.7l11.7,29.7c7.4,18.9,25.4,31.2,45.7,31.2c20.3,0,38.3-12.2,45.7-31.2l11.7-29.7l29.6-11.7
			c18.9-7.5,31.1-25.4,31.1-45.7s-12.2-38.3-31.1-45.7l-29.6-11.7L355.7,327C348.2,308,330.3,295.8,310,295.8L310,295.8z"/>
	</g>
	<g class="st9">
		<path d="M181,522.9c6.2,0,12.3,3.4,15,10.2l5.2,13.3c1.6,4.2,4.9,7.5,9.1,9.1l13.3,5.3c13.6,5.4,13.6,24.7,0,30.1l-13.3,5.3
			c-4.2,1.6-7.4,4.9-9.1,9.1l-5.2,13.3c-2.7,6.8-8.8,10.2-15,10.2c-6.2,0-12.3-3.4-15-10.2l-5.2-13.3c-1.6-4.2-4.9-7.5-9.1-9.1
			l-13.3-5.3c-13.6-5.4-13.6-24.7,0-30.1l13.3-5.3c4.2-1.6,7.4-4.9,9.1-9.1l5.2-13.3C168.7,526.3,174.9,522.9,181,522.9 M181,489.9
			c-20.3,0-38.3,12.2-45.7,31.2l-2.6,6.5l-6.4,2.6c-18.9,7.5-31.1,25.4-31.1,45.7c0,20.3,12.2,38.3,31.1,45.7l6.4,2.6l2.6,6.5
			c7.4,18.9,25.4,31.2,45.7,31.2c20.3,0,38.3-12.2,45.7-31.2l2.6-6.5l6.4-2.6c18.9-7.5,31.1-25.4,31.1-45.7
			c0-20.3-12.2-38.3-31.1-45.7l-6.4-2.6l-2.6-6.5C219.3,502.1,201.4,489.9,181,489.9L181,489.9z"/>
	</g>
</g>
<g id="light" class="st0">
	<path class="st6" d="M238.6,343.5c-6.1,17.4-9.5,36.1-9.5,55.6c0,92,74.6,166.7,166.7,166.7c92,0,166.7-74.6,166.7-166.7
		c0-92-74.6-166.7-166.7-166.7c-19.5,0-38.2,3.3-55.6,9.5"/>
	<path class="st7" d="M395.8,65.7v66.7"/>
	<path class="st7" d="M395.8,665.7v66.7"/>
	<path class="st7" d="M129.1,399H62.4"/>
	<path class="st7" d="M729.1,399h-66.7"/>
	<path class="st7" d="M655,139.8L581,207.5"/>
	<path class="st7" d="M136.5,139.8l74.1,67.7"/>
	<path class="st7" d="M210.6,584.2l-74.1,74.1"/>
	<path class="st7" d="M655,658.3L581,584.2"/>
</g>
<g id="time" class="st0">
	<path class="st2" d="M395.8,265.7V399l83.3,83.3"/>
	<path class="st1" d="M229.1,110.3c49-28.4,106-44.6,166.7-44.6c184.1,0,333.3,149.2,333.3,333.3c0,184.1-149.2,333.3-333.3,333.3
		C211.7,732.3,62.4,583.1,62.4,399c0-60.7,16.2-117.6,44.6-166.7"/>
</g>
<g id="BG1" class="st0">
	<path class="st4" d="M729.1,399c0,157.1,0,235.7-48.8,284.5c-48.8,48.8-127.4,48.8-284.5,48.8c-157.1,0-235.7,0-284.5-48.8
		C62.4,634.7,62.4,556.1,62.4,399c0-157.1,0-235.7,48.8-284.5c48.8-48.8,127.4-48.8,284.5-48.8c157.1,0,235.7,0,284.5,48.8
		c32.5,32.5,43.3,78.1,47,151.2"/>
</g>
<g id="plan" class="st0">
	<path class="st2" d="M210,487.5l18.1,40l115.2-100"/>
	<path class="st2" d="M210,296.2l38.1,40l95.2-100"/>
	<path class="st5" d="M443.3,302.9H590"/>
	<path class="st5" d="M443.3,494.2H590"/>
</g>
<g id="settings_1_" class="st0">
	<path class="st4" d="M215.8,234.3h360"/>
	<path class="st4" d="M215.8,399h360"/>
	<path class="st4" d="M215.8,563.7h360"/>
</g>
<g id="log" class="st0">
	<path class="st2" d="M399.1,287.3v112.6 M399.1,512.5V399.9 M399.1,399.9H286.4 M399.1,399.9h112.6"/>
</g>
<g id="close" class="st0">
	<path class="st11" d="M482.1,316.7L315.4,483.3 M315.4,316.7l166.7,166.7"/>
</g>
<g id="check" class="st0">
	<path class="st11" d="M279.1,415.7l66.7,66.7l166.7-166.7"/>
</g>
<g id="BG2" class="st0">
	<path class="st4" d="M729.1,399c0,157.1,0,235.7-48.8,284.5c-48.8,48.8-127.4,48.8-284.5,48.8c-157.1,0-235.7,0-284.5-48.8
		C62.4,634.7,62.4,556.1,62.4,399c0-157.1,0-235.7,48.8-284.5c48.8-48.8,127.4-48.8,284.5-48.8c20,0,38.8,0,56.4,0.1"/>
</g>
<g id="edit" class="st0">
	<path class="st12" d="M715.5,201.3l-318,318c-31.7,31.7-125.7,46.3-146.7,25.3s-6.7-115,25-146.7L594.2,79.7
		c7.9-8.6,17.4-15.4,27.9-20.2c10.6-4.8,22-7.4,33.6-7.6c11.6-0.2,23.2,1.9,33.9,6.2c10.8,4.3,20.6,10.8,28.8,19s14.7,18,19,28.8
		s6.4,22.3,6.1,34c-0.3,11.6-2.9,23.1-7.7,33.6S724.1,193.5,715.5,201.3L715.5,201.3z"/>
</g>
<g id="quick_edit" class="st0">
	<path class="st12" d="M715.5,201.3l-318,318c-31.7,31.7-125.7,46.3-146.7,25.3s-6.7-115,25-146.7L594.2,79.7
		c7.9-8.6,17.4-15.4,27.9-20.2c10.6-4.8,22-7.4,33.6-7.6c11.6-0.2,23.2,1.9,33.9,6.2c10.8,4.3,20.6,10.8,28.8,19s14.7,18,19,28.8
		s6.4,22.3,6.1,34c-0.3,11.6-2.9,23.1-7.7,33.6S724.1,193.5,715.5,201.3L715.5,201.3z"/>
	<line class="st7" x1="248.2" y1="235.6" x2="329.3" y2="235.6"/>
	<line class="st7" x1="176.3" y1="313.2" x2="257.4" y2="313.2"/>
	<line class="st7" x1="320.1" y1="157.9" x2="401.2" y2="157.9"/>
</g>
<g id="analysis" class="st0">
	<path class="st13" d="M173.1,445.9l202.9-205l109.7,105l134.1-156.8l74.7,72.8"/>
</g>
<g id="import_1_" class="st0">
	<g class="st9">
		<path class="st14" d="M657.7,169L384.4,442.3"/>
		<path class="st14" d="M357.7,308v161h161"/>
	</g>
</g>
<g id="export" class="st0">
	<g class="st9">
		<path class="st14" d="M398.7,428L672,154.7"/>
		<path class="st14" d="M698.7,289V128h-161"/>
	</g>
</g>
<g id="dollar">
	<path class="st15" d="M266.5,639.7c62.7,0,113.5-42.3,113.5-94.6c0-52.2-50.8-94.6-113.5-94.6S153,408.2,153,356
		c0-52.2,50.8-94.6,113.5-94.6 M266.5,639.7c-62.7,0-113.5-42.3-113.5-94.6 M266.5,639.7v37.8 M266.5,223.6v37.8 M266.5,261.4
		c62.7,0,113.5,42.3,113.5,94.6"/>
</g>
<g id="entry">
	<g>
		<path class="st14" d="M697.5,124.8L573.4,252.1"/>
		<path class="st14" d="M546.7,117.8v161h161"/>
	</g>
</g>
<g id="exit" class="st0">
	<g class="st9">
		<path class="st14" d="M558.8,270.8l124.1-127.4"/>
		<path class="st14" d="M709.6,277.8v-161h-161"/>
	</g>
</g>
<g id="timeframe" class="st0">
	<circle class="st12" cx="406.7" cy="406.2" r="221.1"/>
	<line class="st16" x1="243.4" y1="583.2" x2="157.7" y2="700.8"/>
	<line class="st16" x1="653.4" y1="700.8" x2="567.7" y2="583.2"/>
	<line class="st16" x1="373.1" y1="329.4" x2="373.1" y2="439.5"/>
	<line class="st16" x1="472.7" y1="439.7" x2="374" y2="439.7"/>
	<path class="st16" d="M113.7,197.8c0,0,1.6-32.1,31.3-59.1s64.2-29.9,64.2-29.9"/>
	<path class="st16" d="M686.2,197.8c0,0-1.6-32.1-31.3-59.1s-64.2-29.9-64.2-29.9"/>
</g>
<g id="category" class="st0">
	<circle class="st16" cx="248" cy="243.1" r="96.9"/>
	<rect x="467.2" y="152.6" class="st16" width="181" height="181"/>
	<polygon class="st16" points="243.3,439.2 141.7,618.9 344.9,618.9 	"/>
	<polygon class="st16" points="557.7,426.6 591,494 665.4,504.9 611.6,557.4 624.3,631.5 557.7,596.5 491.1,631.5 503.8,557.4 
		450,504.9 524.4,494 	"/>
</g>
<g id="strategy" class="st0">
	<path class="st16" d="M310.8,189.7L179,321.6 M179,189.7l131.9,131.9"/>
	<circle class="st16" cx="553.5" cy="542.7" r="83.1"/>
	<path class="st16" d="M152.3,508.2c0,0,154.8-20,262.1-93.8S588,227.8,588,227.8"/>
	<line class="st16" x1="592.9" y1="222.2" x2="489.3" y2="246"/>
	<line class="st16" x1="592.9" y1="223.7" x2="598.1" y2="329.7"/>
</g>
<g id="direction" class="st0">
	<g class="st9">
		<line class="st17" x1="283.5" y1="234.4" x2="283.5" y2="574.2"/>
		<line class="st17" x1="282.6" y1="235" x2="214.6" y2="302.9"/>
		<line class="st17" x1="284.6" y1="235" x2="352.6" y2="302.9"/>
	</g>
	<g class="st9">
		<line class="st17" x1="530.1" y1="574.2" x2="530.1" y2="234.4"/>
		<line class="st17" x1="531.1" y1="573.6" x2="599" y2="505.7"/>
		<line class="st17" x1="529" y1="573.6" x2="461.1" y2="505.7"/>
	</g>
</g>
<g id="amount" class="st0">
	<line class="st1" x1="170.9" y1="605.8" x2="299.9" y2="605.8"/>
	<line class="st1" x1="170.9" y1="470.4" x2="394.5" y2="470.4"/>
	<line class="st1" x1="170.9" y1="335" x2="519.7" y2="335"/>
	<line class="st1" x1="170.9" y1="199.7" x2="630.2" y2="199.7"/>
</g>
<g id="ticker" class="st0">
	<g class="st9">
		<path class="st18" d="M96.3,599.7h44.6 M96.3,483.6h44.6 M96.3,97.3v616.7h616.7 M96.2,142.8h44.6 M96.2,256.7h44.6 M96.2,369.6
			h44.6"/>
		<path class="st19" d="M291.4,541.8c0,24.8-20.1,44.9-44.9,44.9c-24.8,0-44.9-20.1-44.9-44.9c0-24.8,20.1-44.9,44.9-44.9
			C271.3,496.9,291.4,517,291.4,541.8z M400.7,323.8c0,24.8-20.1,44.9-44.9,44.9c0,0,0,0,0,0c-24.8,0-44.9-20.1-44.9-44.9
			s20.1-44.9,44.9-44.9C380.6,278.8,400.7,298.9,400.7,323.8L400.7,323.8z M582.2,475.4c0,24.8-20.1,44.9-44.9,44.9
			c-24.8,0-44.9-20.1-44.9-44.9c0-24.8,20.1-44.9,44.9-44.9C562.1,430.5,582.2,450.6,582.2,475.4z M672.3,169.6
			c0,24.8-20.1,44.9-44.9,44.9c-24.8,0-44.9-20.1-44.9-44.9c0-24.8,20.1-44.9,44.9-44.9C652.1,124.7,672.2,144.8,672.3,169.6
			L672.3,169.6z"/>
		<path class="st18" d="M272.8,498.1l58.8-130.7 M394.5,357.3l101.4,88 M552.8,428.4l63.1-212.2"/>
	</g>
</g>
<g id="BG3" class="st0">
	<path class="st1" d="M698.7,472.6V209.9c0-62.2-50.4-112.6-112.6-112.6H398.4 M698.7,472.6l-244,225.2 M698.7,472.6H529.8
		c-41.5,0-75.1,33.6-75.1,75.1v150.1 M454.7,697.9h-244c-62.2,0-112.6-50.4-112.6-112.6V397.6"/>
</g>
</svg>
