<?xml version="1.0" encoding="utf-8"?>
<!-- Generator: Adobe Illustrator 24.1.2, SVG Export Plug-In . SVG Version: 6.00 Build 0)  -->
<svg version="1.1" id="Layer_1" xmlns="http://www.w3.org/2000/svg" xmlns:xlink="http://www.w3.org/1999/xlink" x="0px" y="0px"
	 viewBox="0 0 800 800" style="enable-background:new 0 0 800 800;" xml:space="preserve">
<style type="text/css">
	.st0{fill:none;stroke:#000000;stroke-width:66;stroke-linecap:round;stroke-miterlimit:133.3333;}
	.st1{fill:none;stroke:#000000;stroke-width:66;stroke-linecap:round;stroke-linejoin:round;stroke-miterlimit:133.3333;}
</style>
<g id="BG2">
	<path class="st0" d="M729.1,399c0,157.1,0,235.7-48.8,284.5s-127.4,48.8-284.5,48.8s-235.7,0-284.5-48.8
		C62.4,634.7,62.4,556.1,62.4,399s0-235.7,48.8-284.5s127.4-48.8,284.5-48.8c20,0,38.8,0,56.4,0.1"/>
</g>
<g id="dollar">
	<path class="st0" d="M326.9,583.7c62.7,0,113.5-42.3,113.5-94.6c0-52.2-50.8-94.6-113.5-94.6s-113.5-42.3-113.5-94.6
		c0-52.2,50.8-94.6,113.5-94.6 M326.9,583.7c-62.7,0-113.5-42.3-113.5-94.6 M326.9,583.7v37.8 M326.9,167.5v37.8 M326.9,205.4
		c62.7,0,113.5,42.3,113.5,94.6"/>
</g>
<g id="exit">
	<g>
		<path class="st1" d="M558.8,270.8l124.1-127.4"/>
		<path class="st1" d="M709.6,277.8v-161h-161"/>
	</g>
</g>
</svg>
