<?xml version="1.0" encoding="utf-8"?>
<!-- Generator: Adobe Illustrator 24.1.2, SVG Export Plug-In . SVG Version: 6.00 Build 0)  -->
<svg version="1.1" id="Layer_1" xmlns="http://www.w3.org/2000/svg" xmlns:xlink="http://www.w3.org/1999/xlink" x="0px" y="0px"
	 viewBox="0 0 800 800" style="enable-background:new 0 0 800 800;" xml:space="preserve">
<style type="text/css">
	.st0{fill:none;stroke:#000000;stroke-width:66;stroke-linecap:round;stroke-miterlimit:133.3333;}
</style>
<g id="flag">
	<path class="st0" d="M57.4,733.7V609.4 M57.4,609.4l122.3-24.2c81.7-16.2,166.4-8.5,243.7,22.2c83.8,33.2,176.1,39.4,263.6,17.7
		l10.6-2.6c30.9-7.7,52.6-35.2,52.6-66.8V194.5c0-38.3-36.3-66.3-73.8-57.1c-80.7,20-165.8,14.3-243-16.3l-10.1-4
		C346,86.5,261.3,78.8,179.7,95L57.4,119.2 M57.4,609.4v-147 M57.4,119.2V58.1 M57.4,119.2v147.1"/>
</g>
<g id="_x35_0">
	<g>
		<path d="M305.5,464.8c-15,0-28.1-2.5-39.3-7.5c-11.2-5-19.8-12.1-26-21.1c-6.2-9.1-9.2-19.5-9.2-31.1c0-4.2,0.5-8.9,1.6-14.1
			l1.6-7.5h41.3l-0.9,4.4c-0.8,3.6-1.3,6.6-1.3,9.1c0,8.3,3.1,15.2,9.4,20.5s16,8,29.1,8c9.4,0,17.6-2,24.7-5.9
			c7.1-4,12.6-9.3,16.6-16.1c4-6.8,5.9-14.4,5.9-23c0-11.1-2.5-18.9-7.5-23.6s-11.3-7-18.8-7c-5.8,0-10.6,1.3-14.4,3.9
			s-6.6,5.7-8.5,9.2h-67.6L268,241.3h140.2v39.4h-107l-12.8,59.5h5.6c4.6-9.2,11-16.5,19.2-21.9s19-8.1,32.4-8.1
			c16.7,0,30.3,5.6,40.7,16.7c10.4,11.2,15.7,26.3,15.7,45.5c0,16.7-3.7,32.1-11.1,46.2s-18.3,25.3-32.7,33.6
			C343.7,460.7,326.2,464.8,305.5,464.8z"/>
		<path d="M485.7,514.3c-14,0-25.9-3-35.8-9.1c-9.9-6-17.5-14.3-22.7-24.7c-5.2-10.4-7.8-22-7.8-34.7c0-3.5,0.2-7,0.5-10.5
			c0.3-3.4,0.9-6.9,1.7-10.5l10.3-48.8c6.5-30.7,17.7-53.3,33.6-67.8c16-14.5,37.2-21.8,63.7-21.8c14,0,25.9,3,35.8,9.1
			c9.9,6.1,17.5,14.2,22.7,24.6c5.2,10.3,7.8,22,7.8,34.9c0,3.3-0.2,6.8-0.5,10.3c-0.3,3.6-0.9,7.1-1.7,10.6L583,424.8
			c-6.5,30.7-17.6,53.3-33.5,67.8C533.7,507.1,512.4,514.3,485.7,514.3z M492,476.7c13.8,0,24.6-4.4,32.4-13.1
			c7.8-8.8,13.2-20,16.1-33.8l12.2-56.3c1.3-5.6,1.9-11,1.9-16c0-10.2-2.6-18.4-7.8-24.4S533.7,324,523,324
			c-13.8,0-24.6,4.4-32.4,13.1c-7.8,8.8-13.2,20-16.1,33.8l-12.2,56.3c-1.3,5.6-1.9,11-1.9,16c0,10.2,2.6,18.4,7.8,24.4
			C473.4,473.7,481.3,476.7,492,476.7z M507.6,426.7c-7.1,0-13.3-2.6-18.5-7.8c-5.2-5.2-7.8-11.4-7.8-18.5s2.6-13.2,7.8-18.5
			c5.2-5.2,11.4-7.8,18.5-7.8s13.2,2.6,18.5,7.8c5.2,5.2,7.8,11.4,7.8,18.5s-2.6,13.3-7.8,18.5C520.9,424.1,514.7,426.7,507.6,426.7
			z"/>
	</g>
</g>
</svg>
