<?xml version="1.0" encoding="utf-8"?>
<!-- Generator: Adobe Illustrator 24.1.2, SVG Export Plug-In . SVG Version: 6.00 Build 0)  -->
<svg version="1.1" id="Layer_1" xmlns="http://www.w3.org/2000/svg" xmlns:xlink="http://www.w3.org/1999/xlink" x="0px" y="0px"
	 viewBox="0 0 800 800" style="enable-background:new 0 0 800 800;" xml:space="preserve">
<style type="text/css">
	.st0{fill:none;stroke:#000000;stroke-width:66;stroke-linecap:round;stroke-miterlimit:133.3333;}
</style>
<g id="flag">
	<path class="st0" d="M57.4,733.7V609.4 M57.4,609.4l122.3-24.2c81.7-16.2,166.4-8.5,243.7,22.2c83.8,33.2,176.1,39.4,263.6,17.7
		l10.6-2.6c30.9-7.7,52.6-35.2,52.6-66.8V194.5c0-38.3-36.3-66.3-73.8-57.1c-80.7,20-165.8,14.3-243-16.3l-10.1-4
		C346,86.5,261.3,78.8,179.7,95L57.4,119.2 M57.4,609.4v-147 M57.4,119.2V58.1 M57.4,119.2v147.1"/>
</g>
<g id="Layer_46_copy">
	<g>
		<path d="M324.6,481.4V442h62l33.8-159h-5.6l-36.6,75.1h-41.3v-3.8l48.5-92h80.8L427.9,442H482v39.4H324.6z"/>
	</g>
</g>
</svg>
