<?xml version="1.0" encoding="utf-8"?>
<!-- Generator: Adobe Illustrator 24.1.2, SVG Export Plug-In . SVG Version: 6.00 Build 0)  -->
<svg version="1.1" id="Layer_1" xmlns="http://www.w3.org/2000/svg" xmlns:xlink="http://www.w3.org/1999/xlink" x="0px" y="0px"
	 viewBox="0 0 800 800" style="enable-background:new 0 0 800 800;" xml:space="preserve">
<style type="text/css">
	.st0{fill:none;stroke:#000000;stroke-width:66;stroke-linecap:round;stroke-linejoin:round;stroke-miterlimit:10;}
	.st1{fill:none;stroke:#000000;stroke-width:66;stroke-linecap:round;stroke-miterlimit:10;}
	.st2{fill:none;stroke:#000000;stroke-width:66;stroke-linecap:round;stroke-miterlimit:133.3333;}
</style>
<g id="check">
	<path class="st0" d="M279.1,415.7l66.7,66.7l166.7-166.7"/>
</g>
<g id="Layer_49">
	<g>
		<path class="st1" d="M98.1,659.1v51.4c0,28.4,23,51.4,51.4,51.4h513.6c28.4,0,51.4-23,51.4-51.4V94.2c0-28.4-23-51.4-51.4-51.4
			H149.5c-28.4,0-51.4,23-51.4,51.4v51.4"/>
	</g>
	<g>
		<line class="st2" x1="57.2" y1="276.6" x2="141.3" y2="276.6"/>
		<line class="st2" x1="99.2" y1="236.7" x2="99.2" y2="276"/>
	</g>
	<g>
		<line class="st2" x1="58.2" y1="418.6" x2="142.2" y2="418.6"/>
		<line class="st2" x1="100.2" y1="378.7" x2="100.2" y2="418.1"/>
	</g>
	<g>
		<line class="st2" x1="58.2" y1="560.6" x2="142.2" y2="560.6"/>
		<line class="st2" x1="100.2" y1="520.7" x2="100.2" y2="560.1"/>
	</g>
</g>
</svg>
