<?xml version="1.0" encoding="utf-8"?>
<!-- Generator: Adobe Illustrator 24.1.2, SVG Export Plug-In . SVG Version: 6.00 Build 0)  -->
<svg version="1.1" id="Layer_1" xmlns="http://www.w3.org/2000/svg" xmlns:xlink="http://www.w3.org/1999/xlink" x="0px" y="0px"
	 viewBox="0 0 800 800" style="enable-background:new 0 0 800 800;" xml:space="preserve">
<style type="text/css">
	.st0{fill:none;stroke:#000000;stroke-width:66;stroke-linecap:round;stroke-miterlimit:10;}
</style>
<g id="light">
	<path class="st0" d="M238.6,343.5c-6.1,17.4-9.5,36.1-9.5,55.6c0,92,74.6,166.7,166.7,166.7c92,0,166.7-74.6,166.7-166.7
		c0-92-74.6-166.7-166.7-166.7c-19.5,0-38.2,3.3-55.6,9.5"/>
	<path class="st0" d="M395.8,65.7v66.7"/>
	<path class="st0" d="M395.8,665.7v66.7"/>
	<path class="st0" d="M129.1,399H62.4"/>
	<path class="st0" d="M729.1,399h-66.7"/>
	<path class="st0" d="M655,139.8l-74,67.7"/>
	<path class="st0" d="M136.5,139.8l74.1,67.7"/>
	<path class="st0" d="M210.6,584.2l-74.1,74.1"/>
	<path class="st0" d="M655,658.3l-74-74.1"/>
</g>
</svg>
