<?xml version="1.0" encoding="utf-8"?>
<!-- Generator: Adobe Illustrator 24.1.2, SVG Export Plug-In . SVG Version: 6.00 Build 0)  -->
<svg version="1.1" id="Layer_1" xmlns="http://www.w3.org/2000/svg" xmlns:xlink="http://www.w3.org/1999/xlink" x="0px" y="0px"
	 viewBox="0 0 35 35" style="enable-background:new 0 0 35 35;" xml:space="preserve">
<style type="text/css">
	.st0{display:none;fill:none;stroke:#000000;stroke-miterlimit:10;}
	.st1{fill:#FF1212;}
	.st2{fill:#12B248;}
	.st3{fill:none;stroke:#3B82F6;stroke-linecap:round;stroke-miterlimit:10;}
	.st4{fill:#3B82F6;}
	.st5{fill:#87B3F4;}
</style>
<rect x="2.5" y="2.5" class="st0" width="30" height="30"/>
<g>
	<g>
		<rect x="3.2" y="14.4" class="st1" width="4.5" height="12.7"/>
		<rect x="5.2" y="11.7" class="st1" width="0.4" height="18.1"/>
	</g>
	<g>
		<rect x="11.2" y="18.1" class="st2" width="4.5" height="7.7"/>
		<rect x="13.2" y="16.4" class="st2" width="0.4" height="11.1"/>
	</g>
	<g>
		<rect x="21" y="7.2" class="st2" width="0.5" height="15.5"/>
		<rect x="19" y="8.8" class="st2" width="4.5" height="11.3"/>
	</g>
	<polyline class="st3" points="5.1,31.3 13.7,30 21.7,24.8 29.4,22.3 	"/>
	<g>
		<path class="st4" d="M31.8,13.9L31.8,13.9l0-6.2c-0.6,0.2-1.4,0.5-2.3,0.5c-0.9,0-1.7-0.2-2.3-0.5l0,6.2l0,0c0,0.5,0,0.7,0,1
			c0,0.3,0.1,0.6,0.2,0.8c0.1,0.2,0.2,0.4,0.4,0.9l1.1,2.3c0.1,0.2,0.3,0.3,0.6,0.3c0.2,0,0.5-0.1,0.6-0.3l1.1-2.3
			c0.2-0.4,0.3-0.6,0.4-0.9c0.1-0.3,0.2-0.5,0.2-0.8C31.8,14.7,31.8,14.4,31.8,13.9z"/>
		<path class="st5" d="M31.8,6c0-1.3-1-2.3-2.3-2.3c-1.3,0-2.3,1-2.3,2.3l0,0.7c0.6,0.3,1.4,0.5,2.3,0.5c1,0,1.8-0.3,2.3-0.5L31.8,6
			z"/>
	</g>
</g>
</svg>
