<?xml version="1.0" encoding="utf-8"?>
<!-- Generator: Adobe Illustrator 24.1.2, SVG Export Plug-In . SVG Version: 6.00 Build 0)  -->
<svg version="1.1" id="Layer_1" xmlns="http://www.w3.org/2000/svg" xmlns:xlink="http://www.w3.org/1999/xlink" x="0px" y="0px"
	 viewBox="0 0 35 35" style="enable-background:new 0 0 35 35;" xml:space="preserve">
<style type="text/css">
	.st0{display:none;}
	.st1{stroke:#3B82F6;stroke-linecap:round;stroke-miterlimit:10;}
	.st2{fill:#FF1212;}
	.st3{fill:#12B248;}
	.st4{fill:none;stroke:#3B82F6;stroke-linecap:round;stroke-miterlimit:10;}
	.st5{fill:#3B82F6;}
	.st6{fill:#87B3F4;}
</style>
<path class="st0" d="M29.7,35H5.3C2.4,35,0,32.6,0,29.7V5.3C0,2.4,2.4,0,5.3,0h24.4C32.6,0,35,2.4,35,5.3v24.4
	C35,32.6,32.6,35,29.7,35z"/>
<path class="st1" d="M34.5,17.5c0,8,0,12-2.5,14.5c-2.5,2.5-6.5,2.5-14.5,2.5c-8,0-12,0-14.5-2.5c-2.5-2.5-2.5-6.5-2.5-14.5
	c0-8,0-12,2.5-14.5c2.5-2.5,6.5-2.5,14.5-2.5c8,0,12,0,14.5,2.5c1.7,1.7,2.2,4,2.4,7.7"/>
<g>
	<g>
		<rect x="5.3" y="14.9" class="st2" width="3.9" height="10.9"/>
		<rect x="7" y="12.5" class="st2" width="0.4" height="15.5"/>
	</g>
	<g>
		<rect x="12.1" y="18" class="st3" width="3.9" height="6.6"/>
		<rect x="13.8" y="16.6" class="st3" width="0.4" height="9.5"/>
	</g>
	<g>
		<rect x="20.5" y="8.7" class="st3" width="0.5" height="13.3"/>
		<rect x="18.8" y="10.1" class="st3" width="3.9" height="9.7"/>
	</g>
	<polyline class="st4" points="6.9,29.3 14.2,28.2 21.1,23.7 27.7,21.7 	"/>
	<g>
		<path class="st5" d="M29.7,9.1c-0.5,0.2-1.2,0.4-2,0.4s-1.5-0.2-2-0.4c0,0,0,5.9,0,6.1s1.5,3.5,1.5,3.5c0.1,0.2,0.3,0.3,0.5,0.3
			s0.4-0.1,0.5-0.3c0,0,1.4-3.3,1.5-3.5C29.7,15.1,29.7,9.1,29.7,9.1z"/>
		<path class="st6" d="M29.7,7.7c0-1.1-0.9-2-2-2s-2,0.9-2,2v0.6c0.5,0.3,1.2,0.5,2,0.5s1.5-0.2,2-0.5V7.7z"/>
	</g>
</g>
</svg>
