<?xml version="1.0" encoding="utf-8"?>
<!-- Generator: Adobe Illustrator 24.1.2, SVG Export Plug-In . SVG Version: 6.00 Build 0)  -->
<svg version="1.1" id="Layer_1" xmlns="http://www.w3.org/2000/svg" xmlns:xlink="http://www.w3.org/1999/xlink" x="0px" y="0px"
	 viewBox="0 0 35 35" style="enable-background:new 0 0 35 35;" xml:space="preserve">
<style type="text/css">
	.st0{fill:#FF1212;}
	.st1{fill:#12B248;}
	.st2{fill:none;stroke:#3B82F6;stroke-miterlimit:10;}
	.st3{fill:#FFFFFF;}
	.st4{fill:#3B82F6;}
</style>
<rect x="4.9" y="11" class="st0" width="4.3" height="12"/>
<rect x="6.8" y="8.4" class="st0" width="0.4" height="17.1"/>
<rect x="11.5" y="15.5" class="st1" width="4.3" height="7.3"/>
<rect x="13.4" y="13.9" class="st1" width="0.4" height="10.5"/>
<rect x="19.8" y="6" class="st1" width="0.5" height="14.7"/>
<rect x="17.9" y="7.5" class="st1" width="4.3" height="10.7"/>
<polyline class="st2" points="4.7,29 6.7,27 13.7,27 20.3,21.8 25.1,20.8 "/>
<g>
	<g>
		<path class="st3" d="M25.5,19.1L25.1,19l-0.4-2.9c-0.1-0.5-0.1-0.7-0.1-0.9c0-0.3,0-0.6,0.1-0.8c0.1-0.2,0.1-0.5,0.3-0.9L27.5,6
			c0.2-0.6,0.6-1,1.1-1.3c0.3-0.1,0.6-0.2,1-0.2c0.2,0,0.5,0,0.7,0.1c1.2,0.4,1.8,1.7,1.4,2.8L29.1,15c-0.1,0.4-0.2,0.6-0.3,0.8
			c-0.1,0.2-0.2,0.5-0.4,0.7c-0.1,0.2-0.3,0.3-0.7,0.7l-1.9,1.9L25.5,19.1L25.5,19.1z"/>
		<path class="st4" d="M29.6,4.9c0.2,0,0.4,0,0.6,0.1c0.9,0.3,1.4,1.3,1.1,2.3l-2.6,7.5l0,0.1c-0.1,0.4-0.2,0.6-0.3,0.7
			c-0.1,0.2-0.2,0.4-0.4,0.6c-0.1,0.2-0.3,0.3-0.6,0.6l-1.8,1.8c0,0,0,0,0,0c0,0,0,0,0,0c0,0-0.1,0-0.1-0.1l-0.3-2.5
			c-0.1-0.5-0.1-0.7-0.1-0.9c0-0.2,0-0.5,0.1-0.7c0-0.2,0.1-0.4,0.3-0.9L28,6.1c0.2-0.4,0.5-0.8,0.9-1C29.1,5,29.4,4.9,29.6,4.9
			 M29.6,4c-0.4,0-0.8,0.1-1.2,0.3c-0.6,0.3-1.1,0.8-1.4,1.5l-2.6,7.5c-0.2,0.5-0.2,0.7-0.3,0.9c-0.1,0.3-0.1,0.6-0.1,0.9
			c0,0.3,0,0.5,0.1,1l0.3,2.5c0,0.4,0.3,0.7,0.7,0.8l0.1,0l0.2,0c0.3,0,0.5-0.1,0.7-0.3l1.8-1.8c0.3-0.3,0.5-0.5,0.7-0.7
			c0.2-0.3,0.4-0.5,0.5-0.8c0.1-0.2,0.2-0.4,0.3-0.8l0-0.1l2.6-7.5c0.5-1.4-0.3-2.9-1.7-3.4C30.2,4.1,29.9,4,29.6,4L29.6,4z"/>
	</g>
	<path class="st4" d="M29.1,8.2c-0.8-0.3-1.3-0.8-1.5-1.1l-0.4,1.2c0.4,0.3,0.9,0.7,1.6,0.9c0.7,0.2,1.3,0.3,1.8,0.2L31,8.3
		C30.6,8.4,30,8.5,29.1,8.2z"/>
	<path class="st4" d="M25.5,18.6C25.5,18.6,25.5,18.6,25.5,18.6c0.1,0.1,0.1,0.1,0.1,0l0.6-0.6l-0.8-0.3L25.5,18.6z"/>
</g>
</svg>
