<?xml version="1.0" encoding="utf-8"?>
<!-- Generator: Adobe Illustrator 24.1.2, SVG Export Plug-In . SVG Version: 6.00 Build 0)  -->
<svg version="1.1" id="Layer_1" xmlns="http://www.w3.org/2000/svg" xmlns:xlink="http://www.w3.org/1999/xlink" x="0px" y="0px"
	 viewBox="0 0 38 38" style="enable-background:new 0 0 38 38;" xml:space="preserve">
<style type="text/css">
	.st0{fill:#FF1212;}
	.st1{fill:#12B248;}
	.st2{fill:none;stroke:#3B82F6;stroke-linecap:round;stroke-miterlimit:10;}
	.st3{fill:#3B82F6;}
	.st4{fill:#87B3F4;}
</style>
<g>
	<g>
		<rect x="4.7" y="15.9" class="st0" width="4.5" height="12.7"/>
		<rect x="6.7" y="13.2" class="st0" width="0.4" height="18.1"/>
	</g>
	<g>
		<rect x="12.7" y="19.6" class="st1" width="4.5" height="7.7"/>
		<rect x="14.7" y="17.9" class="st1" width="0.4" height="11.1"/>
	</g>
	<g>
		<rect x="22.5" y="8.7" class="st1" width="0.5" height="15.5"/>
		<rect x="20.5" y="10.3" class="st1" width="4.5" height="11.3"/>
	</g>
	<polyline class="st2" points="6.6,32.8 15.2,31.5 23.2,26.3 30.9,23.8 	"/>
	<g>
		<path class="st3" d="M33.3,9.2c-0.6,0.2-1.4,0.5-2.3,0.5s-1.7-0.2-2.3-0.5c0,0,0,6.9,0,7.2c0,0.3,1.7,4,1.7,4
			c0.1,0.2,0.3,0.3,0.6,0.3c0.2,0,0.5-0.1,0.6-0.3c0,0,1.7-3.7,1.7-4C33.3,16.2,33.3,9.2,33.3,9.2z"/>
		<path class="st4" d="M33.3,7.5c0-1.3-1-2.3-2.3-2.3c-1.3,0-2.3,1-2.3,2.3v0.7c0.6,0.3,1.4,0.5,2.3,0.5c1,0,1.8-0.3,2.3-0.5V7.5z"
			/>
	</g>
</g>
<path class="st2" d="M36.5,19c0,8.2,0,12.4-2.6,14.9c-2.6,2.6-6.7,2.6-14.9,2.6c-8.2,0-12.4,0-14.9-2.6C1.5,31.4,1.5,27.2,1.5,19
	c0-8.2,0-12.4,2.6-14.9C6.6,1.5,10.8,1.5,19,1.5c8.2,0,12.4,0,14.9,2.6c1.7,1.7,2.3,4.1,2.5,7.9"/>
</svg>
