<?xml version="1.0" encoding="utf-8"?>
<!-- Generator: Adobe Illustrator 24.1.2, SVG Export Plug-In . SVG Version: 6.00 Build 0)  -->
<svg version="1.1" id="Layer_1" xmlns="http://www.w3.org/2000/svg" xmlns:xlink="http://www.w3.org/1999/xlink" x="0px" y="0px"
	 viewBox="0 0 35 35" style="enable-background:new 0 0 35 35;" xml:space="preserve">
<style type="text/css">
	.st0{display:none;fill:none;stroke:#000000;stroke-miterlimit:10;}
	.st1{fill:#FF1212;}
	.st2{fill:#12B248;}
	.st3{fill:none;stroke:#3B82F6;stroke-linecap:round;stroke-miterlimit:10;}
	.st4{fill:#87B3F4;}
	.st5{fill:#3B82F6;}
</style>
<rect x="2.5" y="2.5" class="st0" width="30" height="30"/>
<g>
	<rect x="3.8" y="14.7" class="st1" width="4.3" height="12"/>
	<rect x="5.7" y="12.1" class="st1" width="0.4" height="17.1"/>
</g>
<g>
	<rect x="11.3" y="18.2" class="st2" width="4.3" height="7.3"/>
	<rect x="13.2" y="16.6" class="st2" width="0.4" height="10.5"/>
</g>
<g>
	<rect x="20.6" y="7.9" class="st2" width="0.5" height="14.7"/>
	<rect x="18.7" y="9.4" class="st2" width="4.3" height="10.7"/>
</g>
<polyline class="st3" points="5.6,30.7 13.7,29.4 21.3,24.5 28.6,22.2 "/>
<g>
	<path class="st4" d="M30.7,7.2c0-1.2-1-2.2-2.2-2.2c-1.2,0-2.2,1-2.2,2.2l0,0.7c0,0,0,0,0.1,0c0.5,0.2,1.2,0.5,2.1,0.5
		s1.6-0.2,2.1-0.5c0,0,0,0,0.1,0V7.2z"/>
	<path class="st5" d="M26.4,7.8L26.4,7.8C26.4,7.9,26.4,7.9,26.4,7.8c0.5,0.3,1.3,0.5,2.2,0.5c0.9,0,1.6-0.2,2.1-0.5c0,0,0,0,0.1,0
		l0,6.6c0,0.4,0,0.7,0,0.9c0,0.3-0.1,0.5-0.2,0.8c-0.1,0.2-0.2,0.4-0.4,0.8l-1.1,2.1c-0.1,0.2-0.3,0.3-0.5,0.3
		c-0.2,0-0.4-0.1-0.5-0.3L27,17c-0.2-0.4-0.3-0.6-0.4-0.8c-0.1-0.2-0.1-0.5-0.2-0.8c0-0.2,0-0.4,0-0.9L26.4,7.8z"/>
</g>
</svg>
