<?xml version="1.0" encoding="utf-8"?>
<!-- Generator: Adobe Illustrator 24.1.2, SVG Export Plug-In . SVG Version: 6.00 Build 0)  -->
<svg version="1.1" id="Layer_1" xmlns="http://www.w3.org/2000/svg" xmlns:xlink="http://www.w3.org/1999/xlink" x="0px" y="0px"
	 viewBox="0 0 35 35" style="enable-background:new 0 0 35 35;" xml:space="preserve">
<style type="text/css">
	.st0{fill:#FF1212;}
	.st1{fill:#12B248;}
	.st2{fill:none;stroke:#3B82F6;stroke-linecap:round;stroke-miterlimit:10;}
	.st3{fill:#3B82F6;}
	.st4{fill:#87B3F4;}
</style>
<path d="M29.7,35H5.3C2.4,35,0,32.6,0,29.7V5.3C0,2.4,2.4,0,5.3,0h24.4C32.6,0,35,2.4,35,5.3v24.4C35,32.6,32.6,35,29.7,35z"/>
<g>
	<g>
		<rect x="5.3" y="14.9" class="st0" width="3.9" height="10.9"/>
		<rect x="7" y="12.5" class="st0" width="0.4" height="15.5"/>
	</g>
	<g>
		<rect x="12.1" y="18" class="st1" width="3.9" height="6.6"/>
		<rect x="13.8" y="16.6" class="st1" width="0.4" height="9.5"/>
	</g>
	<g>
		<rect x="20.5" y="8.7" class="st1" width="0.5" height="13.3"/>
		<rect x="18.8" y="10.1" class="st1" width="3.9" height="9.7"/>
	</g>
	<polyline class="st2" points="6.9,29.3 14.2,28.2 21.1,23.7 27.7,21.7 	"/>
	<g>
		<path class="st3" d="M29.7,14.4L29.7,14.4l0-5.3c-0.5,0.2-1.2,0.4-2,0.4c-0.8,0-1.5-0.2-2-0.4l0,5.3l0,0c0,0.4,0,0.6,0,0.8
			c0,0.2,0.1,0.5,0.2,0.7c0.1,0.2,0.2,0.4,0.3,0.8l1,2c0.1,0.2,0.3,0.3,0.5,0.3c0.2,0,0.4-0.1,0.5-0.3l1-2c0.2-0.4,0.3-0.6,0.3-0.8
			c0.1-0.2,0.1-0.5,0.2-0.7C29.7,15.1,29.7,14.9,29.7,14.4z"/>
		<path class="st4" d="M29.7,7.7c0-1.1-0.9-2-2-2c-1.1,0-2,0.9-2,2l0,0.6c0.5,0.3,1.2,0.5,2,0.5c0.8,0,1.5-0.2,2-0.5L29.7,7.7z"/>
	</g>
</g>
</svg>
