<?xml version="1.0" encoding="utf-8"?>
<!-- Generator: Adobe Illustrator 24.1.2, SVG Export Plug-In . SVG Version: 6.00 Build 0)  -->
<svg version="1.1" id="Layer_1" xmlns="http://www.w3.org/2000/svg" xmlns:xlink="http://www.w3.org/1999/xlink" x="0px" y="0px"
	 viewBox="0 0 35 35" style="enable-background:new 0 0 35 35;" xml:space="preserve">
<style type="text/css">
	.st0{fill:#FF1212;}
	.st1{fill:#12B248;}
	.st2{fill:none;stroke:#3B82F6;stroke-miterlimit:10;}
	.st3{fill:#FFFFFF;}
	.st4{fill:#3B82F6;}
</style>
<rect x="4.9" y="10.99" class="st0" width="4.3" height="12"/>
<rect x="6.82" y="8.44" class="st0" width="0.45" height="17.09"/>
<rect x="11.49" y="15.52" class="st1" width="4.3" height="7.3"/>
<rect x="13.42" y="13.93" class="st1" width="0.45" height="10.47"/>
<rect x="19.83" y="6.01" class="st1" width="0.45" height="14.66"/>
<rect x="17.9" y="7.5" class="st1" width="4.3" height="10.69"/>
<polyline class="st2" points="4.7,29 6.7,27 13.7,27 20.04,22.41 25.47,20.69 "/>
<g>
	<path class="st3" d="M27.96,6.13l-2.57,7.48c-0.15,0.43-0.22,0.65-0.27,0.85c-0.05,0.24-0.07,0.48-0.07,0.72
		c0,0.2,0.03,0.43,0.09,0.89l0.34,2.53c0,0.03,0.02,0.05,0.05,0.06c0.03,0.01,0.05,0,0.07-0.02l1.82-1.79
		c0.33-0.32,0.49-0.48,0.62-0.64c0.15-0.19,0.28-0.39,0.38-0.61c0.08-0.17,0.15-0.36,0.28-0.73l0.04-0.11l2.57-7.48
		c0.32-0.92-0.18-1.93-1.1-2.25c-0.45-0.15-0.93-0.12-1.35,0.08S28.12,5.68,27.96,6.13L27.96,6.13z"/>
	<path class="st4" d="M29.13,8.22c-0.82-0.28-1.3-0.78-1.51-1.05l-0.4,1.18c0.36,0.33,0.87,0.69,1.56,0.92
		c0.69,0.24,1.31,0.26,1.8,0.23l0.4-1.18C30.63,8.41,29.95,8.5,29.13,8.22z"/>
	<path class="st4" d="M25.49,18.6c0,0.03,0.02,0.05,0.05,0.06c0.03,0.01,0.05,0,0.07-0.02l0.6-0.59l-0.84-0.29L25.49,18.6z"/>
</g>
</svg>
