<?xml version="1.0" encoding="utf-8"?>
<!-- Generator: Adobe Illustrator 24.1.2, SVG Export Plug-In . SVG Version: 6.00 Build 0)  -->
<svg version="1.1" id="Layer_1" xmlns="http://www.w3.org/2000/svg" xmlns:xlink="http://www.w3.org/1999/xlink" x="0px" y="0px"
	 viewBox="0 0 32 32" style="enable-background:new 0 0 32 32;" xml:space="preserve">
<style type="text/css">
	.st0{display:none;}
	.st1{display:inline;fill:#FF1212;}
	.st2{display:inline;fill:#12B248;}
	.st3{display:inline;fill:none;stroke:#3B82F6;stroke-miterlimit:10;}
	.st4{display:inline;}
	.st5{fill:#FFFFFF;}
	.st6{fill:#3B82F6;}
	.st7{fill:#FF1212;}
	.st8{fill:#12B248;}
	.st9{fill:none;stroke:#3B82F6;stroke-miterlimit:10;}
</style>
<path d="M27,32H5c-2.8,0-5-2.3-5-5V5c0-2.8,2.3-5,5-5h22c2.8,0,5,2.3,5,5v22C32,29.8,29.8,32,27,32z"/>
<g id="Layer_1_1_" class="st0">
	<rect x="3" y="10.1" class="st1" width="4.3" height="12"/>
	<rect x="4.9" y="7.6" class="st1" width="0.4" height="17.1"/>
	<rect x="9.6" y="14.6" class="st2" width="4.3" height="7.3"/>
	<rect x="11.5" y="13" class="st2" width="0.4" height="10.5"/>
	<rect x="17.9" y="5.1" class="st2" width="0.5" height="14.7"/>
	<rect x="16" y="6.6" class="st2" width="4.3" height="10.7"/>
	<polyline class="st3" points="2.8,28.1 4.8,26.1 11.8,26.1 18.2,21.5 23.6,19.8 	"/>
	<g class="st4">
		<path class="st5" d="M26.1,5.2l-2.6,7.5c-0.1,0.4-0.2,0.6-0.3,0.9c0,0.2-0.1,0.5-0.1,0.7c0,0.2,0,0.4,0.1,0.9l0.3,2.5
			c0,0,0,0,0,0.1c0,0,0,0,0.1,0l1.8-1.8c0.3-0.3,0.5-0.5,0.6-0.6c0.1-0.2,0.3-0.4,0.4-0.6c0.1-0.2,0.1-0.4,0.3-0.7l0-0.1l2.6-7.5
			c0.3-0.9-0.2-1.9-1.1-2.3C27.9,4,27.4,4,27,4.2C26.5,4.4,26.2,4.8,26.1,5.2L26.1,5.2z"/>
		<path class="st6" d="M27.2,7.3c-0.8-0.3-1.3-0.8-1.5-1.1l-0.4,1.2c0.4,0.3,0.9,0.7,1.6,0.9c0.7,0.2,1.3,0.3,1.8,0.2l0.4-1.2
			C28.8,7.5,28.1,7.6,27.2,7.3z"/>
		<path class="st6" d="M23.6,17.7C23.6,17.7,23.6,17.8,23.6,17.7c0.1,0.1,0.1,0.1,0.1,0l0.6-0.6l-0.8-0.3L23.6,17.7z"/>
	</g>
</g>
<rect x="3.1" y="10.1" class="st7" width="4.3" height="12"/>
<rect x="5" y="7.6" class="st7" width="0.4" height="17.1"/>
<rect x="9.7" y="14.6" class="st8" width="4.3" height="7.3"/>
<rect x="11.6" y="13" class="st8" width="0.4" height="10.5"/>
<rect x="18" y="5.1" class="st8" width="0.5" height="14.7"/>
<rect x="16.1" y="6.6" class="st8" width="4.3" height="10.7"/>
<polyline class="st9" points="2.9,28.1 4.9,26.1 11.9,26.1 18.5,20.9 23.3,19.9 "/>
<g>
	<g>
		<path class="st5" d="M23.7,18.2l-0.4-0.1l-0.4-2.9c-0.1-0.5-0.1-0.7-0.1-0.9c0-0.3,0-0.6,0.1-0.8c0.1-0.2,0.1-0.5,0.3-0.9l2.6-7.5
			c0.2-0.6,0.6-1,1.1-1.3c0.3-0.1,0.6-0.2,1-0.2c0.2,0,0.5,0,0.7,0.1c1.2,0.4,1.8,1.7,1.4,2.8l-2.6,7.6c-0.1,0.4-0.2,0.6-0.3,0.8
			c-0.1,0.2-0.2,0.5-0.4,0.7c-0.1,0.2-0.3,0.3-0.7,0.7L24,18.2L23.7,18.2L23.7,18.2z"/>
		<path class="st6" d="M27.8,4c0.2,0,0.4,0,0.6,0.1c0.9,0.3,1.4,1.3,1.1,2.3L27,13.9l0,0.1c-0.1,0.4-0.2,0.6-0.3,0.7
			c-0.1,0.2-0.2,0.4-0.4,0.6c-0.1,0.2-0.3,0.3-0.6,0.6l-1.8,1.8c0,0,0,0,0,0c0,0,0,0,0,0c0,0-0.1,0-0.1-0.1l-0.3-2.5
			c-0.1-0.5-0.1-0.7-0.1-0.9c0-0.2,0-0.5,0.1-0.7c0-0.2,0.1-0.4,0.3-0.9l2.6-7.5c0.2-0.4,0.5-0.8,0.9-1C27.3,4.1,27.6,4,27.8,4
			 M27.8,3.1c-0.4,0-0.8,0.1-1.2,0.3c-0.6,0.3-1.1,0.8-1.4,1.5l-2.6,7.5c-0.2,0.5-0.2,0.7-0.3,0.9c-0.1,0.3-0.1,0.6-0.1,0.9
			c0,0.3,0,0.5,0.1,1l0.3,2.5c0,0.4,0.3,0.7,0.7,0.8l0.1,0l0.2,0c0.3,0,0.5-0.1,0.7-0.3l1.8-1.8c0.3-0.3,0.5-0.5,0.7-0.7
			c0.2-0.3,0.4-0.5,0.5-0.8c0.1-0.2,0.2-0.4,0.3-0.8l0-0.1l2.6-7.5c0.5-1.4-0.3-2.9-1.7-3.4C28.4,3.2,28.1,3.1,27.8,3.1L27.8,3.1z"
			/>
	</g>
	<path class="st6" d="M27.3,7.3c-0.8-0.3-1.3-0.8-1.5-1.1l-0.4,1.2c0.4,0.3,0.9,0.7,1.6,0.9c0.7,0.2,1.3,0.3,1.8,0.2l0.4-1.2
		C28.8,7.5,28.2,7.6,27.3,7.3z"/>
	<path class="st6" d="M23.7,17.7C23.7,17.7,23.7,17.8,23.7,17.7c0.1,0.1,0.1,0.1,0.1,0l0.6-0.6l-0.8-0.3L23.7,17.7z"/>
</g>
</svg>
