<?xml version="1.0" encoding="utf-8"?>
<!-- Generator: Adobe Illustrator 24.1.2, SVG Export Plug-In . SVG Version: 6.00 Build 0)  -->
<svg version="1.1" xmlns="http://www.w3.org/2000/svg" xmlns:xlink="http://www.w3.org/1999/xlink" x="0px" y="0px"
	 viewBox="0 0 32 32" style="enable-background:new 0 0 32 32;" xml:space="preserve">
<style type="text/css">
	.st0{fill:#FF1212;}
	.st1{fill:#12B248;}
	.st2{fill:none;stroke:#3B82F6;stroke-miterlimit:10;}
	.st3{fill:#FFFFFF;}
	.st4{fill:#3B82F6;}
</style>
<g id="Layer_2">
	<path d="M32,31c0,0.55-0.45,1-1,1H1c-0.55,0-1-0.45-1-1V1c0-0.55,0.45-1,1-1h30c0.55,0,1,0.45,1,1"/>
</g>
<g id="Layer_1">
	<rect x="3.02" y="10.1" class="st0" width="4.3" height="12"/>
	<rect x="4.94" y="7.55" class="st0" width="0.45" height="17.09"/>
	<rect x="9.61" y="14.62" class="st1" width="4.3" height="7.3"/>
	<rect x="11.54" y="13.04" class="st1" width="0.45" height="10.47"/>
	<rect x="17.94" y="5.11" class="st1" width="0.45" height="14.66"/>
	<rect x="16.02" y="6.6" class="st1" width="4.3" height="10.69"/>
	<polyline class="st2" points="2.81,28.1 4.81,26.1 11.81,26.1 18.16,21.52 23.58,19.8 	"/>
	<g>
		<path class="st3" d="M26.08,5.24l-2.57,7.48c-0.15,0.43-0.22,0.65-0.27,0.85c-0.05,0.24-0.07,0.48-0.07,0.72
			c0,0.2,0.03,0.43,0.09,0.89l0.34,2.53c0,0.03,0.02,0.05,0.05,0.06c0.03,0.01,0.05,0,0.07-0.02l1.82-1.79
			c0.33-0.32,0.49-0.48,0.62-0.64c0.15-0.19,0.28-0.39,0.38-0.61c0.08-0.17,0.15-0.36,0.28-0.73l0.04-0.11l2.57-7.48
			c0.32-0.92-0.18-1.93-1.1-2.25c-0.45-0.15-0.93-0.12-1.35,0.08C26.55,4.43,26.23,4.79,26.08,5.24L26.08,5.24z"/>
		<path class="st4" d="M27.24,7.33c-0.82-0.28-1.3-0.78-1.51-1.05l-0.4,1.18c0.36,0.33,0.87,0.69,1.56,0.92
			c0.69,0.24,1.31,0.26,1.8,0.23l0.4-1.18C28.75,7.51,28.07,7.61,27.24,7.33z"/>
		<path class="st4" d="M23.61,17.71c0,0.03,0.02,0.05,0.05,0.06c0.03,0.01,0.05,0,0.07-0.02l0.6-0.59l-0.84-0.29L23.61,17.71z"/>
	</g>
</g>
</svg>
