<?xml version="1.0" encoding="utf-8"?>
<!-- Generator: Adobe Illustrator 24.1.2, SVG Export Plug-In . SVG Version: 6.00 Build 0)  -->
<svg version="1.1" id="Layer_1" xmlns="http://www.w3.org/2000/svg" xmlns:xlink="http://www.w3.org/1999/xlink" x="0px" y="0px"
	 viewBox="0 0 35 35" style="enable-background:new 0 0 35 35;" xml:space="preserve">
<style type="text/css">
	.st0{fill:#FF1212;}
	.st1{fill:#12B248;}
	.st2{fill:#3B82F6;}
	.st3{fill:#FFFFFF;}
	.st4{fill:none;stroke:#3B82F6;stroke-miterlimit:10;}
</style>
<rect x="3.7" y="12.49" class="st0" width="4.3" height="12"/>
<rect x="5.63" y="9.95" class="st0" width="0.45" height="17.09"/>
<rect x="10.3" y="17.02" class="st1" width="4.3" height="7.3"/>
<rect x="12.22" y="15.44" class="st1" width="0.45" height="10.47"/>
<rect x="18.63" y="7.51" class="st1" width="0.45" height="14.66"/>
<rect x="16.7" y="9" class="st1" width="4.3" height="10.69"/>
<g>
	<g>
		<path class="st2" d="M25.72,18.05l-1.49-0.51l0.36-1.05L26.08,17L25.72,18.05z M31.34,7.55c-0.05,0.02-1.29,0.53-2.85-0.01
			c-1.56-0.53-2.23-1.69-2.25-1.74l0.97-0.55l0,0c0.02,0.03,0.51,0.85,1.65,1.24c1.14,0.39,2.03,0.05,2.06,0.03l0,0L31.34,7.55z"/>
	</g>
	<g>
		<g>
			<path class="st3" d="M25.62,18.5c-0.28,0.14-0.6,0.16-0.9,0.05c-0.43-0.15-0.73-0.51-0.79-0.96l-0.34-2.53
				c-0.07-0.5-0.1-0.75-0.1-1.03c0-0.32,0.03-0.64,0.09-0.96c0.06-0.27,0.14-0.51,0.3-0.99l2.57-7.48c0.25-0.73,0.77-1.32,1.46-1.65
				c0.69-0.34,1.47-0.39,2.2-0.14c1.5,0.52,2.31,2.16,1.79,3.66l-2.57,7.48c-0.16,0.48-0.25,0.72-0.37,0.96
				c-0.14,0.29-0.31,0.56-0.51,0.82c-0.17,0.21-0.35,0.39-0.71,0.75l-1.82,1.79C25.84,18.37,25.73,18.44,25.62,18.5z M27.5,4.97
				l-2.57,7.48c-0.15,0.43-0.22,0.65-0.27,0.85c-0.05,0.24-0.07,0.48-0.07,0.72c0,0.2,0.03,0.43,0.09,0.89l0.34,2.53
				c0,0.03,0.02,0.05,0.05,0.06c0.03,0.01,0.05,0,0.07-0.02l1.82-1.79c0.33-0.32,0.49-0.48,0.62-0.64c0.15-0.19,0.28-0.39,0.38-0.61
				c0.08-0.17,0.15-0.36,0.28-0.73l0.04-0.11l2.57-7.48c0.32-0.92-0.18-1.93-1.1-2.25c-0.45-0.15-0.93-0.12-1.35,0.08
				S27.65,4.52,27.5,4.97L27.5,4.97z"/>
		</g>
	</g>
</g>
<polyline class="st4" points="3.5,30.5 5.5,28.5 12.5,28.5 19.5,23.5 24.5,20.5 "/>
</svg>
