<?xml version="1.0" encoding="utf-8"?>
<!-- Generator: Adobe Illustrator 24.1.2, SVG Export Plug-In . SVG Version: 6.00 Build 0)  -->
<svg version="1.1" xmlns="http://www.w3.org/2000/svg" xmlns:xlink="http://www.w3.org/1999/xlink" x="0px" y="0px"
	 viewBox="0 0 800 800" style="enable-background:new 0 0 800 800;" xml:space="preserve">
<style type="text/css">
	.st0{display:none;}
	.st1{display:inline;fill:none;stroke:#000000;stroke-width:66;stroke-miterlimit:133.3333;}
	.st2{display:inline;fill:none;stroke:#000000;stroke-width:66;stroke-linecap:round;stroke-miterlimit:133.3333;}
	.st3{display:inline;fill:none;stroke:#000000;stroke-width:66;stroke-linecap:round;stroke-linejoin:round;stroke-miterlimit:128;}
	
		.st4{display:inline;fill:none;stroke:#000000;stroke-width:66;stroke-linecap:round;stroke-linejoin:round;stroke-miterlimit:133.3333;}
	.st5{display:inline;fill:none;stroke:#000000;stroke-width:66;stroke-miterlimit:10;}
	.st6{display:inline;fill:none;stroke:#000000;stroke-width:50;stroke-linecap:round;stroke-miterlimit:10;}
	
		.st7{display:inline;fill:none;stroke:#000000;stroke-width:66.6667;stroke-linecap:round;stroke-linejoin:round;stroke-miterlimit:66.6667;}
	.st8{fill:none;stroke:#000000;stroke-width:66;stroke-linecap:round;stroke-miterlimit:133.3333;}
	.st9{display:inline;fill:none;stroke:#000000;stroke-width:66;stroke-linecap:round;stroke-linejoin:round;stroke-miterlimit:10;}
	.st10{display:inline;fill:none;stroke:#000000;stroke-width:66;stroke-linecap:round;stroke-miterlimit:10;}
	
		.st11{display:inline;fill:none;stroke:#020202;stroke-width:66;stroke-linecap:round;stroke-linejoin:round;stroke-miterlimit:133.3333;}
</style>
<g id="screenshot" class="st0">
	<circle class="st1" cx="400" cy="433.3" r="100"/>
	<path class="st2" d="M66.7,445.5c0-102.1,0-153.2,25-189.9c10.8-15.9,24.7-29.5,40.9-40.1c24-15.8,54.1-21.4,100.1-23.4
		c22,0,40.9-16.3,45.2-37.5c6.5-31.7,34.8-54.5,67.8-54.5h108.9c32.9,0,61.3,22.8,67.8,54.5c4.3,21.1,23.2,37.5,45.2,37.5
		c46,2,76.1,7.6,100.1,23.4c16.2,10.6,30.1,24.2,40.9,40.1c25,36.7,25,87.8,25,189.9c0,102.1,0,153.2-25,189.9
		c-10.8,15.9-24.7,29.5-40.9,40.1C630.1,700,578.1,700,474.1,700H325.9c-104,0-156.1,0-193.4-24.5c-16.2-10.6-30.1-24.3-40.9-40.1
		C84.6,625,79.5,613.5,75.9,600"/>
	<path class="st2" d="M633.3,333.3H600"/>
</g>
<g id="settings" class="st0">
	<circle class="st1" cx="396.3" cy="399.3" r="100"/>
	<path class="st2" d="M118.3,353.9c15.8,9.9,25.9,26.8,25.9,45.4c0,18.6-10.1,35.5-25.9,45.4c-10.7,6.7-17.6,12.1-22.5,18.5
		c-10.8,14-15.5,31.8-13.2,49.3c1.7,13.1,9.5,26.6,25,53.5c15.5,26.9,23.3,40.3,33.8,48.4c14,10.8,31.8,15.5,49.3,13.2
		c8-1.1,16.1-4.3,27.3-10.3c16.4-8.7,36.1-9,52.2,0.3c16.1,9.3,25.6,26.5,26.3,45.1c0.5,12.6,1.7,21.3,4.8,28.8
		c6.8,16.3,19.7,29.3,36.1,36.1c12.3,5.1,27.8,5.1,58.8,5.1s46.6,0,58.8-5.1c16.3-6.8,29.3-19.7,36.1-36.1
		c3.1-7.5,4.3-16.1,4.8-28.8c0.7-18.6,10.2-35.8,26.3-45.1c16.1-9.3,35.8-9,52.2-0.3c11.2,5.9,19.3,9.2,27.3,10.3
		c17.5,2.3,35.3-2.4,49.3-13.2c10.5-8.1,18.3-21.5,33.8-48.4c6.9-12,12.3-21.3,16.3-29.1 M674.2,444.6
		c-15.8-9.9-25.9-26.8-25.9-45.4c0-18.6,10.1-35.5,25.9-45.4c10.7-6.7,17.6-12.1,22.5-18.5c10.8-14,15.5-31.8,13.2-49.3
		c-1.7-13.1-9.5-26.6-25-53.5c-15.5-26.9-23.3-40.4-33.8-48.4c-14-10.8-31.8-15.5-49.3-13.2c-8,1.1-16.1,4.3-27.3,10.3
		c-16.5,8.7-36.1,9-52.2-0.3c-16.1-9.3-25.6-26.5-26.3-45.1c-0.5-12.7-1.7-21.3-4.8-28.8c-6.8-16.3-19.7-29.3-36.1-36.1
		c-12.3-5.1-27.8-5.1-58.8-5.1s-46.6,0-58.8,5.1c-16.3,6.8-29.3,19.7-36.1,36.1c-3.1,7.5-4.3,16.1-4.8,28.8
		c-0.7,18.6-10.2,35.8-26.3,45.1c-16.1,9.3-35.8,9-52.2,0.3c-11.2-5.9-19.3-9.2-27.3-10.3c-17.5-2.3-35.3,2.4-49.3,13.2
		c-10.5,8.1-18.3,21.5-33.8,48.4c-6.9,12-12.3,21.3-16.3,29.1"/>
</g>
<g id="rec" class="st0">
	<path class="st1" d="M229.1,249c0-92,74.6-166.7,166.7-166.7c92,0,166.7,74.6,166.7,166.7v100c0,92-74.6,166.7-166.7,166.7
		c-92,0-166.7-74.6-166.7-166.7V249z"/>
	<path class="st2" d="M429.1,249h133.3"/>
	<path class="st2" d="M429.1,349h133.3"/>
	<path class="st2" d="M395.8,628.7v87"/>
	<path class="st2" d="M126.4,406.3c0,0,26.4,103.4,96.3,156.1c76,57.4,173.1,66.2,173.1,66.2"/>
	<path class="st2" d="M665.2,375.6c0,0,5.7,72-62.3,149.7c-54.7,62.5-114.1,78.5-114.1,78.5"/>
</g>
<g id="share" class="st0">
	<path class="st3" d="M570.6,401.9l160.6-134.6c6.3-5.2,10-12.9,10-21.1c0-8.2-3.7-15.9-10-21.1L570.6,90.4
		c-8.6-7.3-20.6-9.1-30.9-4.6c-10.3,4.5-17.2,14.5-17.7,25.7v53.1c-227.8,16.1-257.1,162.7-257.1,276.7
		c52.3-86.8,158-129.7,257.1-113.9v53.2c0.4,11.3,7.3,21.4,17.6,25.9C550,411,562,409.3,570.6,401.9z"/>
	<path class="st4" d="M399.9,99.8H233.2c-35.4,0-69.3,14-94.3,39.1c-25,25-39.1,58.9-39.1,94.3v333.3c0,35.4,14,69.3,39.1,94.3
		c25,25,58.9,39.1,94.3,39.1h366.7c73.7,0,100-60,100-133.3V399.8"/>
</g>
<g id="plan" class="st0">
	<path class="st4" d="M222.7,470.8l38.1,40l95.2-100"/>
	<path class="st4" d="M222.7,262.5l38.1,40l95.2-100"/>
	<path class="st2" d="M456.1,269.2h146.7"/>
	<path class="st2" d="M456.1,477.5h146.7"/>
	<path class="st4" d="M399.9,99.8H233.2c-35.4,0-69.3,14-94.3,39.1c-25,25-39.1,58.9-39.1,94.3v333.3c0,35.4,14,69.3,39.1,94.3
		c25,25,58.9,39.1,94.3,39.1h366.7c73.7,0,100-60,100-133.3V399.8"/>
</g>
<g id="edit" class="st0">
	<path class="st5" d="M715.5,201.3l-318,318c-31.7,31.7-125.7,46.3-146.7,25.3s-6.7-115,25-146.7L594.2,79.7
		c7.9-8.6,17.4-15.4,27.9-20.2c10.6-4.8,22-7.4,33.6-7.6c11.6-0.2,23.2,1.9,33.9,6.2c10.8,4.3,20.6,10.8,28.8,19s14.7,18,19,28.8
		s6.4,22.3,6.1,34c-0.3,11.6-2.9,23.1-7.7,33.6S724.1,193.5,715.5,201.3L715.5,201.3z"/>
	<path class="st4" d="M372.9,121.3H206.2c-35.4,0-69.3,14-94.3,39.1c-25,25-39.1,58.9-39.1,94.3V588c0,35.4,14,69.3,39.1,94.3
		c25,25,58.9,39.1,94.3,39.1h366.7c73.7,0,100-60,100-133.3V421.3"/>
</g>
<g id="quick_edit" class="st0">
	<path class="st5" d="M715.5,201.3l-318,318c-31.7,31.7-125.7,46.3-146.7,25.3s-6.7-115,25-146.7L594.2,79.7
		c7.9-8.6,17.4-15.4,27.9-20.2c10.6-4.8,22-7.4,33.6-7.6c11.6-0.2,23.2,1.9,33.9,6.2c10.8,4.3,20.6,10.8,28.8,19s14.7,18,19,28.8
		s6.4,22.3,6.1,34c-0.3,11.6-2.9,23.1-7.7,33.6S724.1,193.5,715.5,201.3L715.5,201.3z"/>
	<path class="st4" d="M372.9,121.3H206.2c-35.4,0-69.3,14-94.3,39.1c-25,25-39.1,58.9-39.1,94.3V588c0,35.4,14,69.3,39.1,94.3
		c25,25,58.9,39.1,94.3,39.1h366.7c73.7,0,100-60,100-133.3V421.3"/>
	<line class="st6" x1="258.5" y1="203.7" x2="339.6" y2="203.7"/>
	<line class="st6" x1="195.2" y1="288.9" x2="276.3" y2="288.9"/>
</g>
<g id="analysis" class="st0">
	<path class="st4" d="M372.9,121.3H206.2c-35.4,0-69.3,14-94.3,39.1c-25,25-39.1,58.9-39.1,94.3V588c0,35.4,14,69.3,39.1,94.3
		c25,25,58.9,39.1,94.3,39.1h366.7c73.7,0,100-60,100-133.3V421.3"/>
	<path class="st7" d="M173.1,445.9l202.9-205l109.7,105l134.1-133.8l74.7,72.8"/>
</g>
<g id="settings_1_">
	<path class="st8" d="M215.8,234.3h360"/>
	<path class="st8" d="M215.8,399h360"/>
	<path class="st8" d="M215.8,563.7h360"/>
	<path class="st8" d="M729.1,399c0,157.1,0,235.7-48.8,284.5c-48.8,48.8-127.4,48.8-284.5,48.8c-157.1,0-235.7,0-284.5-48.8
		C62.4,634.7,62.4,556.1,62.4,399c0-157.1,0-235.7,48.8-284.5c48.8-48.8,127.4-48.8,284.5-48.8c157.1,0,235.7,0,284.5,48.8
		c32.5,32.5,43.3,78.1,47,151.2"/>
</g>
<g id="log" class="st0">
	<path class="st4" d="M698.7,472.6V209.9c0-62.2-50.4-112.6-112.6-112.6H398.4 M698.7,472.6l-244,225.2 M698.7,472.6H529.8
		c-41.5,0-75.1,33.6-75.1,75.1v150.1 M454.7,697.9h-244c-62.2,0-112.6-50.4-112.6-112.6V397.6"/>
	<path class="st4" d="M210.7,97.3v112.6 M210.7,322.5V209.9 M210.7,209.9H98.1 M210.7,209.9h112.6"/>
</g>
<g id="delete" class="st0">
	<path class="st4" d="M700.1,474.9V212.1c0-62.2-50.4-112.6-112.6-112.6H399.8 M700.1,474.9l-244,225.2 M700.1,474.9H531.2
		c-41.5,0-75.1,33.6-75.1,75.1v150.1 M456.1,700.1h-244c-62.2,0-112.6-50.4-112.6-112.6V399.8"/>
	<path class="st4" d="M107.3,107.8l79.6,79.6 M266.6,267L187,187.4 M187,187.4L107.3,267 M187,187.4l79.6-79.6"/>
</g>
<g id="import" class="st0">
	<path class="st9" d="M729.1,65.7L455.8,339"/>
	<path class="st9" d="M429.1,204.7v161h161"/>
	<path class="st9" d="M362.4,65.7h-66.7C129.1,65.7,62.4,132.3,62.4,299v200c0,166.7,66.7,233.3,233.3,233.3h200
		c166.7,0,233.3-66.7,233.3-233.3v-66.7"/>
</g>
<g id="close" class="st0">
	<path class="st9" d="M479.1,315.7L312.4,482.3 M312.4,315.7l166.7,166.7"/>
	<path class="st9" d="M729.1,399c0,157.1,0,235.7-48.8,284.5c-48.8,48.8-127.4,48.8-284.5,48.8c-157.1,0-235.7,0-284.5-48.8
		C62.4,634.7,62.4,556.1,62.4,399c0-157.1,0-235.7,48.8-284.5c48.8-48.8,127.4-48.8,284.5-48.8c157.1,0,235.7,0,284.5,48.8
		c32.5,32.5,43.3,78.1,47,151.2"/>
</g>
<g id="month" class="st0">
	<path class="st4" d="M571,699H202.4c-37.3,0-56,0-70.3-7.3c-12.5-6.4-22.7-16.6-29.1-29.1c-7.3-14.3-7.3-32.9-7.3-70.3v-320
		c0-37.3,0-56,7.3-70.3c6.4-12.5,16.6-22.7,29.1-29.1c14.3-7.3,32.9-7.3,70.3-7.3h386.7c37.3,0,56,0,70.3,7.3
		c12.5,6.4,22.7,16.6,29.1,29.1c7.3,14.3,7.3,32.9,7.3,70.3v262 M229,99v66.7 M562.4,99v66.7 M95.7,299h600"/>
	<rect x="202.9" y="398.8" class="st4" width="379.3" height="192.3"/>
</g>
<g id="week" class="st0">
	<path class="st4" d="M571,699H202.4c-37.3,0-56,0-70.3-7.3c-12.5-6.4-22.7-16.6-29.1-29.1c-7.3-14.3-7.3-32.9-7.3-70.3v-320
		c0-37.3,0-56,7.3-70.3c6.4-12.5,16.6-22.7,29.1-29.1c14.3-7.3,32.9-7.3,70.3-7.3h386.7c37.3,0,56,0,70.3,7.3
		c12.5,6.4,22.7,16.6,29.1,29.1c7.3,14.3,7.3,32.9,7.3,70.3v262 M229,99v66.7 M562.4,99v66.7 M95.7,299h600"/>
	<rect x="202.9" y="398.8" class="st4" width="379.3" height="104.3"/>
</g>
<g id="day" class="st0">
	<path class="st4" d="M571,699H202.4c-37.3,0-56,0-70.3-7.3c-12.5-6.4-22.7-16.6-29.1-29.1c-7.3-14.3-7.3-32.9-7.3-70.3v-320
		c0-37.3,0-56,7.3-70.3c6.4-12.5,16.6-22.7,29.1-29.1c14.3-7.3,32.9-7.3,70.3-7.3h386.7c37.3,0,56,0,70.3,7.3
		c12.5,6.4,22.7,16.6,29.1,29.1c7.3,14.3,7.3,32.9,7.3,70.3v262 M229,99v66.7 M562.4,99v66.7 M95.7,299h600"/>
	<rect x="202.9" y="398.8" class="st4" width="118.3" height="104.3"/>
</g>
<g id="check" class="st0">
	<path class="st9" d="M279.1,415.7l66.7,66.7l166.7-166.7"/>
	<path class="st9" d="M729.1,399c0,157.1,0,235.7-48.8,284.5c-48.8,48.8-127.4,48.8-284.5,48.8c-157.1,0-235.7,0-284.5-48.8
		C62.4,634.7,62.4,556.1,62.4,399c0-157.1,0-235.7,48.8-284.5c48.8-48.8,127.4-48.8,284.5-48.8c157.1,0,235.7,0,284.5,48.8
		c32.5,32.5,43.3,78.1,47,151.2"/>
</g>
<g id="robot" class="st0">
	<path class="st9" d="M279.1,415.7l66.7,66.7l166.7-166.7"/>
	<path class="st9" d="M729.1,399c0,157.1,0,235.7-48.8,284.5c-48.8,48.8-127.4,48.8-284.5,48.8c-157.1,0-235.7,0-284.5-48.8
		C62.4,634.7,62.4,556.1,62.4,399c0-157.1,0-235.7,48.8-284.5c48.8-48.8,127.4-48.8,284.5-48.8c157.1,0,235.7,0,284.5,48.8
		c32.5,32.5,43.3,78.1,47,151.2"/>
</g>
<g id="time" class="st0">
	<path class="st4" d="M395.8,265.7V399l83.3,83.3"/>
	<path class="st4" d="M229.1,110.3c49-28.4,106-44.6,166.7-44.6c184.1,0,333.3,149.2,333.3,333.3c0,184.1-149.2,333.3-333.3,333.3
		C211.7,732.3,62.4,583.1,62.4,399c0-60.7,16.2-117.6,44.6-166.7"/>
</g>
<g id="premium" class="st0">
	<path class="st4" d="M379.1,299.8l-50,100h133.3l-50,100 M662.4,399.8c0,148.7-182,256.5-245.3,289.4c-6.8,3.6-10.3,5.3-15,6.3
		c-3.7,0.7-9,0.7-12.7,0c-4.7-0.9-8.2-2.7-15-6.3c-63.3-33-245.3-140.7-245.3-289.4V273.7c0-26.7,0-40,4.4-51.4
		c3.9-10.1,10.1-19.1,18.2-26.3c9.2-8.1,21.7-12.8,46.6-22.1l178.7-67c6.9-2.6,10.4-3.9,14-4.4c3.2-0.5,6.4-0.5,9.5,0
		c3.6,0.5,7,1.8,14,4.4l178.7,67c25,9.4,37.4,14,46.6,22.1c8.1,7.2,14.4,16.2,18.2,26.3c4.4,11.5,4.4,24.8,4.4,51.4V399.8z"/>
</g>
<g id="light" class="st0">
	<path class="st10" d="M238.6,343.5c-6.1,17.4-9.5,36.1-9.5,55.6c0,92,74.6,166.7,166.7,166.7c92,0,166.7-74.6,166.7-166.7
		c0-92-74.6-166.7-166.7-166.7c-19.5,0-38.2,3.3-55.6,9.5"/>
	<path class="st10" d="M395.8,65.7v66.7"/>
	<path class="st10" d="M395.8,665.7v66.7"/>
	<path class="st10" d="M129.1,399H62.4"/>
	<path class="st10" d="M729.1,399h-66.7"/>
	<path class="st10" d="M655,139.8L581,207.5"/>
	<path class="st10" d="M136.5,139.8l74.1,67.7"/>
	<path class="st10" d="M210.6,584.2l-74.1,74.1"/>
	<path class="st10" d="M655,658.3L581,584.2"/>
</g>
<g id="dark" class="st0">
	<path class="st4" d="M387.3,186.3c54.2-53.9,129-87.3,211.5-87.3c32.8,0,64.3,5.2,93.8,14.9C596.5,172.4,532.2,278.2,532.2,399
		c0,120.8,64.3,226.6,160.4,285.1c-29.5,9.7-61,14.9-93.8,14.9c-61.7,0-119-18.6-166.7-50.5"/>
	<path class="st11" d="M324.9,339c-5.4-13.7-24.6-13.7-30,0l-14.3,36.5c-1.6,4.2-4.9,7.5-9.1,9.1L235.2,399
		c-13.6,5.4-13.6,24.7,0,30.1l36.4,14.4c4.2,1.6,7.4,4.9,9.1,9.1l14.3,36.5c5.4,13.7,24.6,13.7,30,0l14.3-36.5
		c1.6-4.2,4.9-7.5,9.1-9.1l36.4-14.4c13.6-5.4,13.6-24.7,0-30.1l-36.4-14.4c-4.2-1.6-7.4-4.9-9.1-9.1L324.9,339z"/>
	<path class="st4" d="M196,533.1c-5.4-13.7-24.6-13.7-30,0l-5.2,13.3c-1.6,4.2-4.9,7.5-9.1,9.1l-13.3,5.3
		c-13.6,5.4-13.6,24.7,0,30.1l13.3,5.2c4.2,1.6,7.4,4.9,9.1,9.1l5.2,13.3c5.4,13.7,24.6,13.7,30,0l5.2-13.3c1.6-4.2,4.9-7.5,9.1-9.1
		l13.3-5.2c13.6-5.4,13.6-24.7,0-30.1l-13.3-5.3c-4.2-1.6-7.4-4.9-9.1-9.1L196,533.1z"/>
</g>
<g id="target" class="st0">
	<path class="st4" d="M62.4,399h100"/>
	<path class="st4" d="M629.1,399h100"/>
	<path class="st4" d="M395.8,732.3v-100"/>
	<path class="st4" d="M395.8,165.7v-100"/>
	<path class="st4" d="M329.1,399h66.7h66.7"/>
	<path class="st4" d="M395.8,465.7V399v-66.7"/>
	<path class="st4" d="M229.1,110.3c49-28.4,106-44.6,166.7-44.6c184.1,0,333.3,149.2,333.3,333.3c0,184.1-149.2,333.3-333.3,333.3
		C211.7,732.3,62.4,583.1,62.4,399c0-60.7,16.2-117.6,44.6-166.7"/>
</g>
<g id="warning" class="st0">
	<path class="st2" d="M206.1,299c76.2-133.3,122-200,189.7-200c77,0,125.7,86.2,222.9,258.7l12.1,21.5
		c80.8,143.3,121.3,215,84.7,267.4C679,699,588.7,699,407.9,699h-24.2c-180.8,0-271.1,0-307.7-52.4c-31.7-45.5-5.4-105.5,54.9-214.3
		"/>
	<path class="st2" d="M395.8,265.7v166.7"/>
	<circle class="st5" cx="396.4" cy="562" r="13.6"/>
</g>
</svg>
