<?xml version="1.0" encoding="utf-8"?>
<!-- Generator: Adobe Illustrator 24.1.2, SVG Export Plug-In . SVG Version: 6.00 Build 0)  -->
<svg version="1.1" id="Layer_1" xmlns="http://www.w3.org/2000/svg" xmlns:xlink="http://www.w3.org/1999/xlink" x="0px" y="0px"
	 viewBox="0 0 800 800" style="enable-background:new 0 0 800 800;" xml:space="preserve">
<style type="text/css">
	.st0{fill:none;stroke:#000000;stroke-width:66;stroke-linecap:round;stroke-miterlimit:133.3333;}
</style>
<g id="flag">
	<path class="st0" d="M57.4,733.7V609.4 M57.4,609.4l122.3-24.2c81.7-16.2,166.4-8.5,243.7,22.2c83.8,33.2,176.1,39.4,263.6,17.7
		l10.6-2.6c30.9-7.7,52.6-35.2,52.6-66.8V194.5c0-38.3-36.3-66.3-73.8-57.1c-80.7,20-165.8,14.3-243-16.3l-10.1-4
		C346,86.5,261.3,78.8,179.7,95L57.4,119.2 M57.4,609.4v-147 M57.4,119.2V58.1 M57.4,119.2v147.1"/>
</g>
<g id="_x31_00">
	<g>
		<path d="M123.8,461.9v-39.4h62l33.8-159H214l-36.6,75.1H136v-3.8l48.5-92h80.8l-38.2,179.7h54.1v39.4H123.8z"/>
		<path d="M382.9,482c-14,0-25.9-3-35.8-9.1c-9.9-6-17.5-14.3-22.7-24.7c-5.2-10.4-7.8-22-7.8-34.7c0-3.5,0.2-7,0.5-10.5
			s0.9-6.9,1.7-10.5l10.3-48.8c6.5-30.7,17.7-53.3,33.6-67.8c16-14.5,37.2-21.8,63.7-21.8c14,0,25.9,3,35.8,9.1
			c9.9,6.1,17.5,14.2,22.7,24.6c5.2,10.3,7.8,22,7.8,34.9c0,3.3-0.2,6.8-0.5,10.3c-0.3,3.6-0.9,7.1-1.7,10.6l-10.3,48.8
			c-6.5,30.7-17.6,53.3-33.5,67.8C430.9,474.8,409.6,482,382.9,482z M389.2,444.5c13.8,0,24.6-4.4,32.4-13.1
			c7.8-8.8,13.2-20,16.1-33.8l12.2-56.3c1.3-5.6,1.9-11,1.9-16c0-10.2-2.6-18.4-7.8-24.4c-5.2-6-13.1-9.1-23.8-9.1
			c-13.8,0-24.6,4.4-32.4,13.1c-7.8,8.8-13.2,20-16.1,33.8L359.5,395c-1.3,5.6-1.9,11-1.9,16c0,10.2,2.6,18.4,7.8,24.4
			C370.6,441.5,378.6,444.5,389.2,444.5z M404.8,394.4c-7.1,0-13.3-2.6-18.5-7.8c-5.2-5.2-7.8-11.4-7.8-18.5s2.6-13.2,7.8-18.5
			c5.2-5.2,11.4-7.8,18.5-7.8s13.3,2.6,18.5,7.8c5.2,5.2,7.8,11.4,7.8,18.5s-2.6,13.3-7.8,18.5C418.1,391.8,411.9,394.4,404.8,394.4
			z"/>
		<path d="M568.8,523c-14,0-25.9-3-35.8-9.1c-9.9-6-17.5-14.3-22.7-24.7c-5.2-10.4-7.8-22-7.8-34.7c0-3.5,0.2-7,0.5-10.5
			c0.3-3.4,0.9-6.9,1.7-10.5l10.3-48.8c6.5-30.7,17.7-53.3,33.6-67.8c16-14.5,37.2-21.8,63.7-21.8c14,0,25.9,3,35.8,9.1
			c9.9,6.1,17.5,14.2,22.7,24.6c5.2,10.3,7.8,22,7.8,34.9c0,3.3-0.2,6.8-0.5,10.3c-0.3,3.6-0.9,7.1-1.7,10.6l-10.3,48.8
			c-6.5,30.7-17.6,53.3-33.5,67.8C616.8,515.8,595.6,523,568.8,523z M575.1,485.5c13.8,0,24.6-4.4,32.4-13.1
			c7.8-8.8,13.2-20,16.1-33.8l12.2-56.3c1.3-5.6,1.9-11,1.9-16c0-10.2-2.6-18.4-7.8-24.4s-13.1-9.1-23.8-9.1
			c-13.8,0-24.6,4.4-32.4,13.1c-7.8,8.8-13.2,20-16.1,33.8L545.4,436c-1.3,5.6-1.9,11-1.9,16c0,10.2,2.6,18.4,7.8,24.4
			S564.5,485.5,575.1,485.5z M590.8,435.4c-7.1,0-13.3-2.6-18.5-7.8c-5.2-5.2-7.8-11.4-7.8-18.5s2.6-13.2,7.8-18.5
			c5.2-5.2,11.4-7.8,18.5-7.8s13.2,2.6,18.5,7.8c5.2,5.2,7.8,11.4,7.8,18.5s-2.6,13.3-7.8,18.5C604,432.8,597.8,435.4,590.8,435.4z"
			/>
	</g>
</g>
</svg>
