<?xml version="1.0" encoding="utf-8"?>
<!-- Generator: Adobe Illustrator 24.1.2, SVG Export Plug-In . SVG Version: 6.00 Build 0)  -->
<svg version="1.1" id="Layer_1" xmlns="http://www.w3.org/2000/svg" xmlns:xlink="http://www.w3.org/1999/xlink" x="0px" y="0px"
	 viewBox="0 0 800 800" style="enable-background:new 0 0 800 800;" xml:space="preserve">
<style type="text/css">
	.st0{fill:none;stroke:#000000;stroke-width:66;stroke-linecap:round;stroke-miterlimit:133.3333;}
	.st1{fill:none;stroke:#000000;stroke-width:66;stroke-linecap:round;stroke-linejoin:round;stroke-miterlimit:133.3333;}
</style>
<g id="BG1">
	<path class="st0" d="M729.1,399c0,157.1,0,235.7-48.8,284.5s-127.4,48.8-284.5,48.8s-235.7,0-284.5-48.8
		C62.4,634.7,62.4,556.1,62.4,399s0-235.7,48.8-284.5s127.4-48.8,284.5-48.8s235.7,0,284.5,48.8c32.5,32.5,43.3,78.1,47,151.2"/>
</g>
<g id="plan">
	<path class="st1" d="M210,508.5l18.1,40l115.2-100"/>
	<path class="st1" d="M210,285.2l38.1,40l95.2-100"/>
	<path class="st0" d="M443.3,291.9H590"/>
	<path class="st0" d="M443.3,515.2H590"/>
</g>
</svg>
