<?xml version="1.0" encoding="utf-8"?>
<!-- Generator: Adobe Illustrator 24.1.2, SVG Export Plug-In . SVG Version: 6.00 Build 0)  -->
<svg version="1.1" id="Layer_1" xmlns="http://www.w3.org/2000/svg" xmlns:xlink="http://www.w3.org/1999/xlink" x="0px" y="0px"
	 viewBox="0 0 800 800" style="enable-background:new 0 0 800 800;" xml:space="preserve">
<style type="text/css">
	.st0{fill:none;stroke:#000000;stroke-width:66;stroke-linecap:round;stroke-linejoin:round;stroke-miterlimit:133.3333;}
	.st1{fill:none;stroke:#000000;stroke-width:33;stroke-linecap:round;stroke-linejoin:round;stroke-miterlimit:133.3333;}
</style>
<g id="pro">
	<path class="st0" d="M663.7,399.8c0,148.7-182,256.5-245.3,289.4c-6.8,3.6-10.3,5.3-15,6.3c-3.7,0.7-9,0.7-12.7,0
		c-4.7-0.9-8.2-2.7-15-6.3c-63.3-33-245.3-140.7-245.3-289.4V273.7c0-26.7,0-40,4.4-51.4c3.9-10.1,10.1-19.1,18.2-26.3
		c9.2-8.1,21.7-12.8,46.6-22.1l178.7-67c6.9-2.6,10.4-3.9,14-4.4c3.2-0.5,6.4-0.5,9.5,0c3.6,0.5,7,1.8,14,4.4l178.7,67
		c25,9.4,37.4,14,46.6,22.1c8.1,7.2,14.4,16.2,18.2,26.3c4.4,11.5,4.4,24.8,4.4,51.4V399.8z"/>
</g>
<g id="Layer_32">
	<g>
		<path d="M397,322.2l35,70.8l78.1,11.4l-56.5,55.1l13.3,77.9L397,500.6l-69.9,36.8l13.3-77.9l-56.6-55.1L362,393L397,322.2
			 M397,256.2c-25.1,0-48,14.2-59.2,36.8l-19.6,39.7l-43.9,6.4c-24.9,3.6-45.5,21.1-53.3,44.9c-7.8,23.9-1.3,50.1,16.7,67.7
			l31.7,30.9l-7.5,43.7c-4.2,24.8,6,49.8,26.3,64.5c11.5,8.3,25.1,12.6,38.8,12.6c10.5,0,21.1-2.5,30.7-7.6l39.2-20.6l39.2,20.6
			c9.7,5.1,20.2,7.6,30.7,7.6c13.7,0,27.3-4.2,38.8-12.6c20.3-14.8,30.5-39.8,26.3-64.5l-7.5-43.7l31.7-30.9
			c18-17.5,24.4-43.7,16.7-67.6c-7.8-23.9-28.4-41.3-53.2-44.9l-43.8-6.4L456.2,293C445,270.4,422.1,256.2,397,256.2L397,256.2z"/>
	</g>
</g>
<g id="Layer_31">
	<path class="st1" d="M524,218v49 M524,316v-49 M524,267h-49 M524,267h49"/>
</g>
</svg>
