<?xml version="1.0" encoding="utf-8"?>
<!-- Generator: Adobe Illustrator 24.1.2, SVG Export Plug-In . SVG Version: 6.00 Build 0)  -->
<svg version="1.1" id="Layer_1" xmlns="http://www.w3.org/2000/svg" xmlns:xlink="http://www.w3.org/1999/xlink" x="0px" y="0px"
	 viewBox="0 0 800 800" style="enable-background:new 0 0 800 800;" xml:space="preserve">
<style type="text/css">
	.st0{fill:none;stroke:#000000;stroke-width:66;stroke-linecap:round;stroke-miterlimit:133.3333;}
	.st1{fill:none;stroke:#000000;stroke-width:66;stroke-miterlimit:10;}
	.st2{fill:none;stroke:#000000;stroke-width:33;stroke-linecap:round;stroke-miterlimit:10;}
</style>
<g id="BG2">
	<path class="st0" d="M729.1,399c0,157.1,0,235.7-48.8,284.5s-127.4,48.8-284.5,48.8s-235.7,0-284.5-48.8
		C62.4,634.7,62.4,556.1,62.4,399s0-235.7,48.8-284.5s127.4-48.8,284.5-48.8c20,0,38.8,0,56.4,0.1"/>
</g>
<path class="st1" d="M715.5,201.3l-318,318c-31.7,31.7-125.7,46.3-146.7,25.3s-6.7-115,25-146.7L594.2,79.7
	c7.9-8.6,17.4-15.4,27.9-20.2c10.6-4.8,22-7.4,33.6-7.6c11.6-0.2,23.2,1.9,33.9,6.2c10.8,4.3,20.6,10.8,28.8,19s14.7,18,19,28.8
	s6.4,22.3,6.1,34c-0.3,11.6-2.9,23.1-7.7,33.6S724.1,193.5,715.5,201.3L715.5,201.3z"/>
<line class="st2" x1="226.2" y1="235.6" x2="307.3" y2="235.6"/>
<line class="st2" x1="154.3" y1="313.2" x2="235.4" y2="313.2"/>
<line class="st2" x1="298.1" y1="157.9" x2="379.2" y2="157.9"/>
</svg>
