<?xml version="1.0" encoding="utf-8"?>
<!-- Generator: Adobe Illustrator 24.1.2, SVG Export Plug-In . SVG Version: 6.00 Build 0)  -->
<svg version="1.1" id="Layer_1" xmlns="http://www.w3.org/2000/svg" xmlns:xlink="http://www.w3.org/1999/xlink" x="0px" y="0px"
	 viewBox="0 0 800 800" style="enable-background:new 0 0 800 800;" xml:space="preserve">
<style type="text/css">
	.st0{fill:none;stroke:#000000;stroke-width:66;stroke-miterlimit:133.3333;}
	.st1{fill:none;stroke:#000000;stroke-width:33;stroke-linecap:round;stroke-miterlimit:133.3333;}
	.st2{fill:none;stroke:#000000;stroke-width:66;stroke-linecap:round;stroke-miterlimit:133.3333;}
</style>
<path class="st0" d="M229.1,249c0-92,74.6-166.7,166.7-166.7c92,0,166.7,74.6,166.7,166.7v100c0,92-74.6,166.7-166.7,166.7
	c-92,0-166.7-74.6-166.7-166.7L229.1,249L229.1,249z"/>
<path class="st1" d="M429.1,249h133.3"/>
<path class="st1" d="M429.1,349h133.3"/>
<path class="st2" d="M395.8,615.7v100"/>
<path class="st2" d="M126.4,393.3c0,0,20.7,104.5,89.5,158.6c72.8,57.2,179.9,63.8,179.9,63.8"/>
<path class="st2" d="M665.2,375.6c0,0,5.7,72-62.3,149.7c-54.7,62.5-114.1,78.5-114.1,78.5"/>
</svg>
