<?xml version="1.0" encoding="utf-8"?>
<!-- Generator: Adobe Illustrator 24.1.2, SVG Export Plug-In . SVG Version: 6.00 Build 0)  -->
<svg version="1.1" id="Layer_1" xmlns="http://www.w3.org/2000/svg" xmlns:xlink="http://www.w3.org/1999/xlink" x="0px" y="0px"
	 viewBox="0 0 800 800" style="enable-background:new 0 0 800 800;" xml:space="preserve">
<style type="text/css">
	.st0{fill:none;stroke:#000000;stroke-width:66;stroke-linecap:round;stroke-linejoin:round;stroke-miterlimit:133.3333;}
	.st1{fill:none;stroke:#000000;stroke-width:33;stroke-linecap:round;stroke-linejoin:round;stroke-miterlimit:133.3333;}
</style>
<path class="st0" d="M707.6,410.7c36.8,0,56.7,29.8,56.7,66.7v33.3c0,36.8-19.8,66.7-56.7,66.7"/>
<path class="st0" d="M94.3,410.7c-36.8,0-56.7,29.8-56.7,66.7v33.3c0,36.8,19.8,66.7,56.7,66.7"/>
<path class="st0" d="M400.1,277.4h-100c-73.6,0-133.3,59.7-133.3,133.3v2h-0.1v164.7v-0.1V721h100h266.7h100V577.3v2.1V410.7l0,0
	l0,0c0-73.6-59.7-133.3-133.3-133.3L400.1,277.4"/>
<line class="st0" x1="301" y1="412.7" x2="301" y2="412.7"/>
<line class="st0" x1="501" y1="412.7" x2="501" y2="412.7"/>
<rect x="268.5" y="517.3" class="st1" width="261" height="102.5"/>
<path class="st0" d="M360.8,609.7"/>
<path class="st0" d="M360.8,543.9"/>
<path class="st0" d="M442.8,609.7"/>
<path class="st0" d="M442.8,543.9"/>
<circle class="st0" cx="400" cy="121.5" r="80.9"/>
</svg>
