<?xml version="1.0" encoding="utf-8"?>
<!-- Generator: Adobe Illustrator 24.1.2, SVG Export Plug-In . SVG Version: 6.00 Build 0)  -->
<svg version="1.1" id="Layer_1" xmlns="http://www.w3.org/2000/svg" xmlns:xlink="http://www.w3.org/1999/xlink" x="0px" y="0px"
	 viewBox="0 0 800 800" style="enable-background:new 0 0 800 800;" xml:space="preserve">
<style type="text/css">
	.st0{fill:none;stroke:#000000;stroke-width:66;stroke-miterlimit:133.3333;}
	.st1{fill:none;stroke:#000000;stroke-width:66;stroke-linecap:round;stroke-miterlimit:133.3333;}
</style>
<g id="screenshot">
	<circle class="st0" cx="400" cy="433.3" r="100"/>
	<path class="st1" d="M66.7,445.5c0-102.1,0-153.2,25-189.9c10.8-15.9,24.7-29.5,40.9-40.1c24-15.8,54.1-21.4,100.1-23.4
		c22,0,40.9-16.3,45.2-37.5c6.5-31.7,34.8-54.5,67.8-54.5h108.9c32.9,0,61.3,22.8,67.8,54.5c4.3,21.1,23.2,37.5,45.2,37.5
		c46,2,76.1,7.6,100.1,23.4c16.2,10.6,30.1,24.2,40.9,40.1c25,36.7,25,87.8,25,189.9s0,153.2-25,189.9
		c-10.8,15.9-24.7,29.5-40.9,40.1C630.1,700,578.1,700,474.1,700H325.9c-104,0-156.1,0-193.4-24.5c-16.2-10.6-30.1-24.3-40.9-40.1
		c-7-10.4-12.1-21.9-15.7-35.4"/>
	<path class="st1" d="M633.3,333.3H600"/>
</g>
</svg>
