<?xml version="1.0" encoding="utf-8"?>
<!-- Generator: Adobe Illustrator 24.1.2, SVG Export Plug-In . SVG Version: 6.00 Build 0)  -->
<svg version="1.1" id="Layer_1" xmlns="http://www.w3.org/2000/svg" xmlns:xlink="http://www.w3.org/1999/xlink" x="0px" y="0px"
	 viewBox="0 0 800 800" style="enable-background:new 0 0 800 800;" xml:space="preserve">
<style type="text/css">
	.st0{fill:none;stroke:#000000;stroke-width:66;stroke-miterlimit:133.3333;}
	.st1{fill:none;stroke:#000000;stroke-width:66;stroke-linecap:round;stroke-miterlimit:133.3333;}
</style>
<g id="settings">
	<circle class="st0" cx="396.3" cy="399.3" r="100"/>
	<path class="st1" d="M118.3,353.9c15.8,9.9,25.9,26.8,25.9,45.4s-10.1,35.5-25.9,45.4c-10.7,6.7-17.6,12.1-22.5,18.5
		c-10.8,14-15.5,31.8-13.2,49.3c1.7,13.1,9.5,26.6,25,53.5s23.3,40.3,33.8,48.4c14,10.8,31.8,15.5,49.3,13.2
		c8-1.1,16.1-4.3,27.3-10.3c16.4-8.7,36.1-9,52.2,0.3s25.6,26.5,26.3,45.1c0.5,12.6,1.7,21.3,4.8,28.8c6.8,16.3,19.7,29.3,36.1,36.1
		c12.3,5.1,27.8,5.1,58.8,5.1s46.6,0,58.8-5.1c16.3-6.8,29.3-19.7,36.1-36.1c3.1-7.5,4.3-16.1,4.8-28.8
		c0.7-18.6,10.2-35.8,26.3-45.1s35.8-9,52.2-0.3c11.2,5.9,19.3,9.2,27.3,10.3c17.5,2.3,35.3-2.4,49.3-13.2
		c10.5-8.1,18.3-21.5,33.8-48.4c6.9-12,12.3-21.3,16.3-29.1 M674.2,444.6c-15.8-9.9-25.9-26.8-25.9-45.4s10.1-35.5,25.9-45.4
		c10.7-6.7,17.6-12.1,22.5-18.5c10.8-14,15.5-31.8,13.2-49.3c-1.7-13.1-9.5-26.6-25-53.5s-23.3-40.4-33.8-48.4
		c-14-10.8-31.8-15.5-49.3-13.2c-8,1.1-16.1,4.3-27.3,10.3c-16.5,8.7-36.1,9-52.2-0.3c-16.1-9.3-25.6-26.5-26.3-45.1
		c-0.5-12.7-1.7-21.3-4.8-28.8c-6.8-16.3-19.7-29.3-36.1-36.1c-12.3-5.1-27.8-5.1-58.8-5.1s-46.6,0-58.8,5.1
		c-16.3,6.8-29.3,19.7-36.1,36.1c-3.1,7.5-4.3,16.1-4.8,28.8c-0.7,18.6-10.2,35.8-26.3,45.1c-16.1,9.3-35.8,9-52.2,0.3
		c-11.2-5.9-19.3-9.2-27.3-10.3c-17.5-2.3-35.3,2.4-49.3,13.2c-10.5,8.1-18.3,21.5-33.8,48.4c-6.9,12-12.3,21.3-16.3,29.1"/>
</g>
</svg>
