<?xml version="1.0" encoding="utf-8"?>
<!-- Generator: Adobe Illustrator 24.1.2, SVG Export Plug-In . SVG Version: 6.00 Build 0)  -->
<svg version="1.1" id="Layer_1" xmlns="http://www.w3.org/2000/svg" xmlns:xlink="http://www.w3.org/1999/xlink" x="0px" y="0px"
	 viewBox="0 0 800 800" style="enable-background:new 0 0 800 800;" xml:space="preserve">
<style type="text/css">
	.st0{fill:none;stroke:#000000;stroke-width:66;stroke-linecap:round;stroke-miterlimit:133.3333;}
</style>
<g id="share">
	<path class="st0" d="M132,417.6c0,46,37.3,83.3,83.3,83.3s83.3-37.3,83.3-83.3s-37.3-83.3-83.3-83.3"/>
	<path class="st0" d="M465.4,234.3L298.7,350.9"/>
	<path class="st0" d="M465.4,600.9L298.7,484.3"/>
	<path class="st0" d="M548.7,717.6c46,0,83.3-37.3,83.3-83.3S594.7,551,548.7,551s-83.3,37.3-83.3,83.3"/>
	<path class="st0" d="M620.9,242.6c-23,39.9-74,53.5-113.8,30.5c-39.9-23-53.5-74-30.5-113.8c23-39.9,74-53.5,113.8-30.5"/>
</g>
</svg>
