<?xml version="1.0" encoding="utf-8"?>
<!-- Generator: Adobe Illustrator 24.1.2, SVG Export Plug-In . SVG Version: 6.00 Build 0)  -->
<svg version="1.1" id="Layer_1" xmlns="http://www.w3.org/2000/svg" xmlns:xlink="http://www.w3.org/1999/xlink" x="0px" y="0px"
	 viewBox="0 0 800 800" style="enable-background:new 0 0 800 800;" xml:space="preserve">
<style type="text/css">
	.st0{fill:none;stroke:#000000;stroke-width:66;stroke-linecap:round;stroke-linejoin:round;stroke-miterlimit:133.3333;}
	.st1{fill:none;stroke:#000000;stroke-width:33;stroke-linecap:round;stroke-miterlimit:133.3333;}
</style>
<g id="target">
	<path class="st0" d="M62.4,399h100"/>
	<path class="st0" d="M629.1,399h100"/>
	<path class="st0" d="M395.8,732.3v-100"/>
	<path class="st0" d="M395.8,165.7v-100"/>
	<path class="st0" d="M229.1,110.3c49-28.4,106-44.6,166.7-44.6c184.1,0,333.3,149.2,333.3,333.3S579.9,732.3,395.8,732.3
		S62.4,583.1,62.4,399c0-60.7,16.2-117.6,44.6-166.7"/>
</g>
<g id="dollar_small">
	<path class="st1" d="M400,521c40.1,0,72.6-27.1,72.6-60.5S440.1,400,400,400s-72.6-27.1-72.6-60.5S359.9,279,400,279 M400,521
		c-40.1,0-72.6-27.1-72.6-60.5 M400,521v24.2 M400,254.8V279 M400,279c40.1,0,72.6,27.1,72.6,60.5"/>
</g>
</svg>
