<?xml version="1.0" encoding="utf-8"?>
<svg version="1.1" xmlns="http://www.w3.org/2000/svg" viewBox="0 0 800 800" xml:space="preserve">
<style type="text/css">
  .st0{fill:none;stroke:#000000;stroke-width:66;stroke-linecap:round;stroke-linejoin:round;stroke-miterlimit:10;}
</style>
<g id="tags">
  <path class="st0" d="M287.3,104.7h100.4c24.5,0,36.7,0,48.2,2.8c10.2,2.4,20,6.5,28.9,12c10.1,6.2,18.7,14.8,36,32.1L687.3,338 M255.6,339.7h0.3 M321,204.7h-40.4c-56,0-84,0-105.4,10.9c-18.8,9.6-34.1,24.9-43.7,43.7c-10.9,21.4-10.9,49.4-10.9,105.4v40.4c0,24.5,0,36.7,2.8,48.2c2.4,10.2,6.5,20,12,28.9c6.2,10.1,14.8,18.7,32.1,36l106.7,106.7c39.6,39.6,59.4,59.4,82.2,66.8c20.1,6.5,41.7,6.5,61.8,0c22.8-7.4,42.6-27.2,82.2-66.8l40.4-40.4c39.6-39.6,59.4-59.4,66.8-82.2c6.5-20.1,6.5-41.7,0-61.8c-7.4-22.8-27.2-42.6-66.8-82.2L434.1,251.5c-17.3-17.3-25.9-25.9-36-32.1c-8.9-5.5-18.7-9.5-28.9-12c-11.5-2.8-23.7-2.8-48.2-2.8z M272.2,339.7c0,9.2-7.5,16.7-16.7,16.7c-9.2,0-16.7-7.5-16.7-16.7c0-9.2,7.5-16.7,16.7-16.7C264.8,323,272.2,330.5,272.2,339.7z"/>
</g>
</svg>
