<?xml version="1.0" encoding="utf-8"?>
<!-- Generator: Adobe Illustrator 24.1.2, SVG Export Plug-In . SVG Version: 6.00 Build 0)  -->
<svg version="1.1" id="Layer_1" xmlns="http://www.w3.org/2000/svg" xmlns:xlink="http://www.w3.org/1999/xlink" x="0px" y="0px"
	 viewBox="0 0 800 800" style="enable-background:new 0 0 800 800;" xml:space="preserve">
<style type="text/css">
	.st0{fill-opacity:0;stroke:#000000;stroke-width:66;stroke-linecap:round;stroke-linejoin:round;stroke-miterlimit:25;}
	.st1{fill-opacity:0;stroke:#000000;stroke-width:33;stroke-linecap:round;stroke-linejoin:round;stroke-miterlimit:25;}
	.st2{fill:none;stroke:#000000;stroke-width:66;stroke-linecap:round;stroke-linejoin:round;stroke-miterlimit:25;}
</style>
<polyline class="st0" points="96.3,97.3 96.3,714 713,714 "/>
<line class="st1" x1="96.3" y1="599.7" x2="140.9" y2="599.7"/>
<line class="st1" x1="96.3" y1="483.6" x2="140.9" y2="483.6"/>
<line class="st1" x1="96.2" y1="142.8" x2="140.8" y2="142.8"/>
<line class="st1" x1="96.2" y1="256.7" x2="140.8" y2="256.7"/>
<line class="st1" x1="96.2" y1="369.6" x2="140.8" y2="369.6"/>
<path class="st2" d="M291.4,541.8c0,24.8-20.1,44.9-44.9,44.9s-44.9-20.1-44.9-44.9c0-24.8,20.1-44.9,44.9-44.9
	S291.4,517,291.4,541.8z M400.7,323.8c0,24.8-20.1,44.9-44.9,44.9l0,0c-24.8,0-44.9-20.1-44.9-44.9s20.1-44.9,44.9-44.9
	C380.6,278.8,400.7,298.9,400.7,323.8L400.7,323.8z M582.2,475.4c0,24.8-20.1,44.9-44.9,44.9c-24.8,0-44.9-20.1-44.9-44.9
	s20.1-44.9,44.9-44.9S582.2,450.6,582.2,475.4z M672.3,169.6c0,24.8-20.1,44.9-44.9,44.9c-24.8,0-44.9-20.1-44.9-44.9
	s20.1-44.9,44.9-44.9C652.1,124.7,672.2,144.8,672.3,169.6L672.3,169.6z"/>
<path class="st1" d="M272.8,498.1l58.8-130.7 M394.5,357.3l101.4,88 M552.8,428.4l63.1-212.2"/>
</svg>
